# MagicaVoxel @ ephtracy

# material
mtllib gold.mtl
usemtl palette

# normals
vn -1 0 0
vn 1 0 0
vn 0 0 1
vn 0 0 -1
vn 0 -1 0
vn 0 1 0

# texcoords
vt 0.00195313 0.5
vt 0.00976563 0.5
vt 0.0214844 0.5

# verts
v -11 0 9
v -11 0 -9
v -11 5 9
v -11 5 -9
v -6 0 12
v -6 0 9
v -6 0 -9
v -6 0 -12
v -6 5 12
v -6 5 9
v -6 5 -9
v -6 5 -12
v -4 3 2
v -4 3 -2
v -4 4 2
v -4 4 -2
v -2 3 4
v -2 3 2
v -2 3 -2
v -2 3 -4
v -2 4 4
v -2 4 2
v -2 4 -2
v -2 4 -4
v 7 3 6
v 7 3 -6
v 7 4 6
v 7 4 -6
v 7 5 6
v 7 5 -6
v -7 3 6
v -7 3 -6
v -7 4 6
v -7 4 -6
v -7 5 6
v -7 5 -6
v 2 3 4
v 2 3 2
v 2 3 -2
v 2 3 -4
v 2 4 4
v 2 4 2
v 2 4 -2
v 2 4 -4
v 4 3 2
v 4 3 -2
v 4 4 2
v 4 4 -2
v 6 0 12
v 6 0 9
v 6 0 -9
v 6 0 -12
v 6 5 12
v 6 5 9
v 6 5 -9
v 6 5 -12
v 11 0 9
v 11 0 -9
v 11 5 9
v 11 5 -9
v -6 0 12
v -6 5 12
v 6 0 12
v 6 5 12
v -11 0 9
v -11 5 9
v -6 0 9
v -6 5 9
v 6 0 9
v 6 5 9
v 11 0 9
v 11 5 9
v -2 3 4
v -2 4 4
v 2 3 4
v 2 4 4
v -4 3 2
v -4 4 2
v -2 3 2
v -2 4 2
v 2 3 2
v 2 4 2
v 4 3 2
v 4 4 2
v -7 3 -6
v -7 4 -6
v -7 5 -6
v 7 3 -6
v 7 4 -6
v 7 5 -6
v -7 3 6
v -7 4 6
v -7 5 6
v 7 3 6
v 7 4 6
v 7 5 6
v -4 3 -2
v -4 4 -2
v -2 3 -2
v -2 4 -2
v 2 3 -2
v 2 4 -2
v 4 3 -2
v 4 4 -2
v -2 3 -4
v -2 4 -4
v 2 3 -4
v 2 4 -4
v -11 0 -9
v -11 5 -9
v -6 0 -9
v -6 5 -9
v 6 0 -9
v 6 5 -9
v 11 0 -9
v 11 5 -9
v -6 0 -12
v -6 5 -12
v 6 0 -12
v 6 5 -12
v -6 0 12
v 6 0 12
v -11 0 9
v -6 0 9
v 6 0 9
v 11 0 9
v -11 0 -9
v -6 0 -9
v 6 0 -9
v 11 0 -9
v -6 0 -12
v 6 0 -12
v -7 3 6
v 7 3 6
v -2 3 4
v 2 3 4
v -4 3 2
v -2 3 2
v 2 3 2
v 4 3 2
v -4 3 -2
v -2 3 -2
v 2 3 -2
v 4 3 -2
v -2 3 -4
v 2 3 -4
v -7 3 -6
v 7 3 -6
v -2 4 4
v 2 4 4
v -4 4 2
v -2 4 2
v 2 4 2
v 4 4 2
v -4 4 -2
v -2 4 -2
v 2 4 -2
v 4 4 -2
v -2 4 -4
v 2 4 -4
v -6 5 12
v 6 5 12
v -11 5 9
v -6 5 9
v 6 5 9
v 11 5 9
v -7 5 6
v 7 5 6
v -7 5 -6
v 7 5 -6
v -11 5 -9
v -6 5 -9
v 6 5 -9
v 11 5 -9
v -6 5 -12
v 6 5 -12

# faces
f 3/3/1 2/3/1 1/3/1
f 4/3/1 2/3/1 3/3/1
f 9/3/1 6/3/1 5/3/1
f 10/3/1 6/3/1 9/3/1
f 11/3/1 8/3/1 7/3/1
f 12/3/1 8/3/1 11/3/1
f 15/1/1 14/1/1 13/1/1
f 16/1/1 14/1/1 15/1/1
f 21/1/1 18/1/1 17/1/1
f 22/1/1 18/1/1 21/1/1
f 23/1/1 20/1/1 19/1/1
f 24/1/1 20/1/1 23/1/1
f 27/2/1 26/2/1 25/2/1
f 28/2/1 26/2/1 27/2/1
f 29/3/1 28/3/1 27/3/1
f 30/3/1 28/3/1 29/3/1
f 31/2/2 32/2/2 33/2/2
f 33/2/2 32/2/2 34/2/2
f 33/3/2 34/3/2 35/3/2
f 35/3/2 34/3/2 36/3/2
f 37/1/2 38/1/2 41/1/2
f 41/1/2 38/1/2 42/1/2
f 39/1/2 40/1/2 43/1/2
f 43/1/2 40/1/2 44/1/2
f 45/1/2 46/1/2 47/1/2
f 47/1/2 46/1/2 48/1/2
f 49/3/2 50/3/2 53/3/2
f 53/3/2 50/3/2 54/3/2
f 51/3/2 52/3/2 55/3/2
f 55/3/2 52/3/2 56/3/2
f 57/3/2 58/3/2 59/3/2
f 59/3/2 58/3/2 60/3/2
f 63/3/3 62/3/3 61/3/3
f 64/3/3 62/3/3 63/3/3
f 67/3/3 66/3/3 65/3/3
f 68/3/3 66/3/3 67/3/3
f 71/3/3 70/3/3 69/3/3
f 72/3/3 70/3/3 71/3/3
f 75/1/3 74/1/3 73/1/3
f 76/1/3 74/1/3 75/1/3
f 79/1/3 78/1/3 77/1/3
f 80/1/3 78/1/3 79/1/3
f 83/1/3 82/1/3 81/1/3
f 84/1/3 82/1/3 83/1/3
f 88/2/3 86/2/3 85/2/3
f 89/3/3 87/3/3 86/3/3
f 89/2/3 86/2/3 88/2/3
f 90/3/3 87/3/3 89/3/3
f 91/2/4 92/2/4 94/2/4
f 92/3/4 93/3/4 95/3/4
f 94/2/4 92/2/4 95/2/4
f 95/3/4 93/3/4 96/3/4
f 97/1/4 98/1/4 99/1/4
f 99/1/4 98/1/4 100/1/4
f 101/1/4 102/1/4 103/1/4
f 103/1/4 102/1/4 104/1/4
f 105/1/4 106/1/4 107/1/4
f 107/1/4 106/1/4 108/1/4
f 109/3/4 110/3/4 111/3/4
f 111/3/4 110/3/4 112/3/4
f 113/3/4 114/3/4 115/3/4
f 115/3/4 114/3/4 116/3/4
f 117/3/4 118/3/4 119/3/4
f 119/3/4 118/3/4 120/3/4
f 124/3/5 122/3/5 121/3/5
f 125/3/5 122/3/5 124/3/5
f 127/3/5 124/3/5 123/3/5
f 127/3/5 126/3/5 125/3/5
f 127/3/5 125/3/5 124/3/5
f 128/3/5 126/3/5 127/3/5
f 129/3/5 126/3/5 128/3/5
f 130/3/5 126/3/5 129/3/5
f 131/3/5 129/3/5 128/3/5
f 132/3/5 129/3/5 131/3/5
f 133/3/6 134/3/6 135/3/6
f 135/3/6 134/3/6 136/3/6
f 133/3/6 135/3/6 137/3/6
f 137/3/6 135/3/6 138/3/6
f 136/3/6 134/3/6 139/3/6
f 139/3/6 134/3/6 140/3/6
f 133/3/6 137/3/6 141/3/6
f 140/3/6 134/3/6 144/3/6
f 141/3/6 142/3/6 145/3/6
f 143/3/6 144/3/6 146/3/6
f 141/3/6 145/3/6 147/3/6
f 145/3/6 146/3/6 147/3/6
f 133/3/6 141/3/6 147/3/6
f 146/3/6 144/3/6 148/3/6
f 147/3/6 146/3/6 148/3/6
f 144/3/6 134/3/6 148/3/6
f 149/1/6 150/1/6 152/1/6
f 152/1/6 150/1/6 153/1/6
f 151/1/6 152/1/6 155/1/6
f 153/1/6 154/1/6 155/1/6
f 152/1/6 153/1/6 155/1/6
f 155/1/6 154/1/6 156/1/6
f 156/1/6 154/1/6 157/1/6
f 157/1/6 154/1/6 158/1/6
f 156/1/6 157/1/6 159/1/6
f 159/1/6 157/1/6 160/1/6
f 161/3/6 162/3/6 164/3/6
f 164/3/6 162/3/6 165/3/6
f 163/3/6 164/3/6 167/3/6
f 165/3/6 166/3/6 167/3/6
f 164/3/6 165/3/6 167/3/6
f 167/3/6 166/3/6 168/3/6
f 163/3/6 167/3/6 169/3/6
f 168/3/6 166/3/6 170/3/6
f 163/3/6 169/3/6 171/3/6
f 169/3/6 170/3/6 171/3/6
f 171/3/6 170/3/6 172/3/6
f 172/3/6 170/3/6 173/3/6
f 170/3/6 166/3/6 174/3/6
f 173/3/6 170/3/6 174/3/6
f 172/3/6 173/3/6 175/3/6
f 175/3/6 173/3/6 176/3/6
