# MagicaVoxel @ Ephtracy

# material
mtllib fist.mtl
usemtl palette

# normals
vn -1 0 0
vn 1 0 0
vn 0 0 1
vn 0 0 -1
vn 0 -1 0
vn 0 1 0

# texcoords
vt 0.306641 0.5
vt 0.373047 0.5
vt 0.970703 0.5
vt 0.974609 0.5
vt 0.978516 0.5

# verts
v -6 1 29
v -6 1 23
v -6 4 29
v -6 4 23
v -5 0 29
v -5 0 23
v -5 1 29
v -5 1 23
v -5 4 29
v -5 4 23
v -5 5 29
v -5 5 23
v -4 0 30
v -4 0 29
v -4 0 23
v -4 0 5
v -4 1 29
v -4 1 23
v -4 4 29
v -4 4 23
v -4 4 5
v -4 5 29
v -4 5 28
v -4 5 27
v -4 5 24
v -4 6 30
v -4 6 28
v -4 6 27
v -4 6 24
v -2 0 30
v -2 0 29
v -2 0 5
v -2 0 2
v -2 1 29
v -2 1 5
v -2 1 2
v -2 3 4
v -2 3 2
v -2 4 29
v -2 4 21
v -2 4 5
v -2 4 4
v -2 5 29
v -2 5 28
v -2 5 21
v -2 5 4
v -2 6 30
v -2 6 28
v 1 0 30
v 1 0 29
v 1 1 29
v 1 4 29
v 1 5 29
v 1 5 28
v 1 6 30
v 1 6 28
v 3 0 30
v 3 0 29
v 3 1 29
v 3 4 29
v 3 5 29
v 3 5 28
v 3 6 30
v 3 6 28
v -3 0 30
v -3 0 29
v -3 1 29
v -3 4 29
v -3 5 29
v -3 5 28
v -3 6 30
v -3 6 28
v -1 0 30
v -1 0 29
v -1 1 29
v -1 4 29
v -1 5 29
v -1 5 28
v -1 6 30
v -1 6 28
v 2 0 30
v 2 0 29
v 2 0 5
v 2 0 2
v 2 1 29
v 2 1 5
v 2 1 2
v 2 3 4
v 2 3 2
v 2 4 29
v 2 4 21
v 2 4 5
v 2 4 4
v 2 5 29
v 2 5 28
v 2 5 21
v 2 5 4
v 2 6 30
v 2 6 28
v 4 0 30
v 4 0 29
v 4 0 23
v 4 0 5
v 4 1 29
v 4 1 23
v 4 4 29
v 4 4 23
v 4 4 5
v 4 5 29
v 4 5 28
v 4 5 27
v 4 5 24
v 4 6 30
v 4 6 28
v 4 6 27
v 4 6 24
v 5 0 29
v 5 0 23
v 5 1 29
v 5 1 23
v 5 4 29
v 5 4 23
v 5 5 29
v 5 5 23
v 6 1 29
v 6 1 23
v 6 4 29
v 6 4 23
v -4 0 30
v -4 6 30
v -3 0 30
v -3 6 30
v -2 0 30
v -2 6 30
v -1 0 30
v -1 6 30
v 1 0 30
v 1 6 30
v 2 0 30
v 2 6 30
v 3 0 30
v 3 6 30
v 4 0 30
v 4 6 30
v -6 1 29
v -6 4 29
v -5 0 29
v -5 1 29
v -5 4 29
v -5 5 29
v -4 0 29
v -4 1 29
v -4 4 29
v -4 5 29
v -3 0 29
v -3 1 29
v -3 4 29
v -3 5 29
v -2 0 29
v -2 1 29
v -2 4 29
v -2 5 29
v -1 0 29
v -1 1 29
v -1 4 29
v -1 5 29
v 1 0 29
v 1 1 29
v 1 4 29
v 1 5 29
v 2 0 29
v 2 1 29
v 2 4 29
v 2 5 29
v 3 0 29
v 3 1 29
v 3 4 29
v 3 5 29
v 4 0 29
v 4 1 29
v 4 4 29
v 4 5 29
v 5 0 29
v 5 1 29
v 5 4 29
v 5 5 29
v 6 1 29
v 6 4 29
v -4 5 27
v -4 6 27
v 4 5 27
v 4 6 27
v -2 4 21
v -2 5 21
v 2 4 21
v 2 5 21
v -4 5 28
v -4 6 28
v -3 5 28
v -3 6 28
v -2 5 28
v -2 6 28
v -1 5 28
v -1 6 28
v 1 5 28
v 1 6 28
v 2 5 28
v 2 6 28
v 3 5 28
v 3 6 28
v 4 5 28
v 4 6 28
v -4 5 24
v -4 6 24
v 4 5 24
v 4 6 24
v -6 1 23
v -6 4 23
v -5 0 23
v -5 1 23
v -5 4 23
v -5 5 23
v -4 0 23
v -4 1 23
v -4 4 23
v -3 4 23
v 3 4 23
v 4 0 23
v 4 1 23
v 4 4 23
v 5 0 23
v 5 1 23
v 5 4 23
v 5 5 23
v 6 1 23
v 6 4 23
v -4 0 5
v -4 4 5
v -3 0 5
v -3 1 5
v -3 4 5
v -2 0 5
v -2 1 5
v -2 4 5
v 2 0 5
v 2 1 5
v 2 4 5
v 3 0 5
v 3 1 5
v 3 4 5
v 4 0 5
v 4 4 5
v -2 3 4
v -2 4 4
v -2 5 4
v 2 3 4
v 2 4 4
v 2 5 4
v -2 0 2
v -2 1 2
v -2 3 2
v 2 0 2
v 2 1 2
v 2 3 2
v -4 0 30
v -3 0 30
v -2 0 30
v -1 0 30
v 1 0 30
v 2 0 30
v 3 0 30
v 4 0 30
v -5 0 29
v -4 0 29
v -3 0 29
v -2 0 29
v -1 0 29
v 1 0 29
v 2 0 29
v 3 0 29
v 4 0 29
v 5 0 29
v -4 0 28
v -3 0 28
v -2 0 28
v -1 0 28
v 1 0 28
v 2 0 28
v 3 0 28
v 4 0 28
v -5 0 23
v -4 0 23
v -3 0 23
v 3 0 23
v 4 0 23
v 5 0 23
v -4 0 5
v -3 0 5
v -2 0 5
v 2 0 5
v 3 0 5
v 4 0 5
v -2 0 2
v 2 0 2
v -6 1 29
v -5 1 29
v 5 1 29
v 6 1 29
v -6 1 23
v -5 1 23
v 5 1 23
v 6 1 23
v -2 3 4
v 2 3 4
v -2 3 2
v 2 3 2
v -6 4 29
v -5 4 29
v 5 4 29
v 6 4 29
v -6 4 23
v -5 4 23
v -4 4 23
v -3 4 23
v 3 4 23
v 4 4 23
v 5 4 23
v 6 4 23
v -2 4 21
v 2 4 21
v -4 4 5
v -3 4 5
v -2 4 5
v 2 4 5
v 3 4 5
v 4 4 5
v -5 5 29
v -4 5 29
v -3 5 29
v -2 5 29
v -1 5 29
v 1 5 29
v 2 5 29
v 3 5 29
v 4 5 29
v 5 5 29
v -4 5 28
v -3 5 28
v -2 5 28
v -1 5 28
v 1 5 28
v 2 5 28
v 3 5 28
v 4 5 28
v -4 5 27
v 4 5 27
v -4 5 24
v 4 5 24
v -5 5 23
v 5 5 23
v -2 5 21
v 2 5 21
v -2 5 4
v 2 5 4
v -4 6 30
v -3 6 30
v -2 6 30
v -1 6 30
v 1 6 30
v 2 6 30
v 3 6 30
v 4 6 30
v -4 6 28
v -3 6 28
v -2 6 28
v -1 6 28
v 1 6 28
v 2 6 28
v 3 6 28
v 4 6 28
v -4 6 27
v 4 6 27
v -4 6 24
v 4 6 24

# faces
f 3/4/1 2/4/1 1/4/1
f 4/4/1 2/4/1 3/4/1
f 7/4/1 6/4/1 5/4/1
f 8/4/1 6/4/1 7/4/1
f 11/5/1 10/5/1 9/5/1
f 12/5/1 10/5/1 11/5/1
f 17/3/1 14/3/1 13/3/1
f 18/3/1 16/3/1 15/3/1
f 19/3/1 17/3/1 13/3/1
f 20/3/1 16/3/1 18/3/1
f 21/3/1 16/3/1 20/3/1
f 22/3/1 19/3/1 13/3/1
f 26/3/1 22/3/1 13/3/1
f 26/3/1 23/3/1 22/3/1
f 27/3/1 23/3/1 26/3/1
f 28/3/1 25/3/1 24/3/1
f 29/3/1 25/3/1 28/3/1
f 34/3/1 31/3/1 30/3/1
f 35/4/1 33/4/1 32/4/1
f 36/4/1 33/4/1 35/4/1
f 37/2/1 36/2/1 35/2/1
f 38/2/1 36/2/1 37/2/1
f 39/3/1 34/3/1 30/3/1
f 41/2/1 37/2/1 35/2/1
f 42/2/1 37/2/1 41/2/1
f 43/3/1 39/3/1 30/3/1
f 45/4/1 41/4/1 40/4/1
f 45/4/1 42/4/1 41/4/1
f 46/4/1 42/4/1 45/4/1
f 47/3/1 44/3/1 43/3/1
f 47/3/1 43/3/1 30/3/1
f 48/3/1 44/3/1 47/3/1
f 51/3/1 50/3/1 49/3/1
f 52/3/1 51/3/1 49/3/1
f 53/3/1 52/3/1 49/3/1
f 55/3/1 53/3/1 49/3/1
f 55/3/1 54/3/1 53/3/1
f 56/3/1 54/3/1 55/3/1
f 59/3/1 58/3/1 57/3/1
f 60/3/1 59/3/1 57/3/1
f 61/3/1 60/3/1 57/3/1
f 63/3/1 61/3/1 57/3/1
f 63/3/1 62/3/1 61/3/1
f 64/3/1 62/3/1 63/3/1
f 65/3/2 66/3/2 67/3/2
f 65/3/2 67/3/2 68/3/2
f 65/3/2 68/3/2 69/3/2
f 65/3/2 69/3/2 71/3/2
f 69/3/2 70/3/2 71/3/2
f 71/3/2 70/3/2 72/3/2
f 73/3/2 74/3/2 75/3/2
f 73/3/2 75/3/2 76/3/2
f 73/3/2 76/3/2 77/3/2
f 73/3/2 77/3/2 79/3/2
f 77/3/2 78/3/2 79/3/2
f 79/3/2 78/3/2 80/3/2
f 81/3/2 82/3/2 85/3/2
f 83/4/2 84/4/2 86/4/2
f 86/4/2 84/4/2 87/4/2
f 86/2/2 87/2/2 88/2/2
f 88/2/2 87/2/2 89/2/2
f 81/3/2 85/3/2 90/3/2
f 86/2/2 88/2/2 92/2/2
f 92/2/2 88/2/2 93/2/2
f 81/3/2 90/3/2 94/3/2
f 91/4/2 92/4/2 96/4/2
f 92/4/2 93/4/2 96/4/2
f 96/4/2 93/4/2 97/4/2
f 94/3/2 95/3/2 98/3/2
f 81/3/2 94/3/2 98/3/2
f 98/3/2 95/3/2 99/3/2
f 100/3/2 101/3/2 104/3/2
f 102/3/2 103/3/2 105/3/2
f 100/3/2 104/3/2 106/3/2
f 105/3/2 103/3/2 107/3/2
f 107/3/2 103/3/2 108/3/2
f 100/3/2 106/3/2 109/3/2
f 100/3/2 109/3/2 113/3/2
f 109/3/2 110/3/2 113/3/2
f 113/3/2 110/3/2 114/3/2
f 111/3/2 112/3/2 115/3/2
f 115/3/2 112/3/2 116/3/2
f 117/4/2 118/4/2 119/4/2
f 119/4/2 118/4/2 120/4/2
f 121/5/2 122/5/2 123/5/2
f 123/5/2 122/5/2 124/5/2
f 125/4/2 126/4/2 127/4/2
f 127/4/2 126/4/2 128/4/2
f 131/3/3 130/3/3 129/3/3
f 132/3/3 130/3/3 131/3/3
f 135/3/3 134/3/3 133/3/3
f 136/3/3 134/3/3 135/3/3
f 139/3/3 138/3/3 137/3/3
f 140/3/3 138/3/3 139/3/3
f 143/3/3 142/3/3 141/3/3
f 144/3/3 142/3/3 143/3/3
f 148/4/3 146/4/3 145/4/3
f 149/4/3 146/4/3 148/4/3
f 151/4/3 148/4/3 147/4/3
f 152/1/3 149/1/3 148/1/3
f 152/4/3 148/4/3 151/4/3
f 153/5/3 150/5/3 149/5/3
f 153/1/3 149/1/3 152/1/3
f 154/5/3 150/5/3 153/5/3
f 159/4/3 156/4/3 155/4/3
f 160/1/3 157/1/3 156/1/3
f 160/4/3 156/4/3 159/4/3
f 161/5/3 158/5/3 157/5/3
f 161/1/3 157/1/3 160/1/3
f 162/5/3 158/5/3 161/5/3
f 167/4/3 164/4/3 163/4/3
f 168/1/3 165/1/3 164/1/3
f 168/4/3 164/4/3 167/4/3
f 169/5/3 166/5/3 165/5/3
f 169/1/3 165/1/3 168/1/3
f 170/5/3 166/5/3 169/5/3
f 175/4/3 172/4/3 171/4/3
f 176/1/3 173/1/3 172/1/3
f 176/4/3 172/4/3 175/4/3
f 177/5/3 174/5/3 173/5/3
f 177/1/3 173/1/3 176/1/3
f 178/5/3 174/5/3 177/5/3
f 183/4/3 180/4/3 179/4/3
f 184/1/3 181/1/3 180/1/3
f 184/4/3 180/4/3 183/4/3
f 185/5/3 182/5/3 181/5/3
f 185/1/3 181/1/3 184/1/3
f 186/5/3 182/5/3 185/5/3
f 187/4/3 185/4/3 184/4/3
f 188/4/3 185/4/3 187/4/3
f 191/3/3 190/3/3 189/3/3
f 192/3/3 190/3/3 191/3/3
f 195/4/3 194/4/3 193/4/3
f 196/4/3 194/4/3 195/4/3
f 197/3/4 198/3/4 199/3/4
f 199/3/4 198/3/4 200/3/4
f 201/3/4 202/3/4 203/3/4
f 203/3/4 202/3/4 204/3/4
f 205/3/4 206/3/4 207/3/4
f 207/3/4 206/3/4 208/3/4
f 209/3/4 210/3/4 211/3/4
f 211/3/4 210/3/4 212/3/4
f 213/3/4 214/3/4 215/3/4
f 215/3/4 214/3/4 216/3/4
f 217/4/4 218/4/4 220/4/4
f 220/4/4 218/4/4 221/4/4
f 219/4/4 220/4/4 223/4/4
f 220/1/4 221/1/4 224/1/4
f 223/4/4 220/4/4 224/4/4
f 221/5/4 222/5/4 225/5/4
f 224/1/4 221/1/4 225/1/4
f 225/5/4 222/5/4 226/5/4
f 226/5/4 222/5/4 227/5/4
f 227/5/4 222/5/4 230/5/4
f 228/4/4 229/4/4 231/4/4
f 229/1/4 230/1/4 232/1/4
f 231/4/4 229/4/4 232/4/4
f 230/5/4 222/5/4 233/5/4
f 232/1/4 230/1/4 233/1/4
f 233/5/4 222/5/4 234/5/4
f 232/4/4 233/4/4 235/4/4
f 235/4/4 233/4/4 236/4/4
f 237/3/4 238/3/4 239/3/4
f 239/3/4 238/3/4 240/3/4
f 240/3/4 238/3/4 241/3/4
f 239/4/4 240/4/4 242/4/4
f 240/5/4 241/5/4 243/5/4
f 242/4/4 240/4/4 243/4/4
f 243/5/4 241/5/4 244/5/4
f 245/4/4 246/4/4 248/4/4
f 246/5/4 247/5/4 249/5/4
f 248/4/4 246/4/4 249/4/4
f 249/5/4 247/5/4 250/5/4
f 248/3/4 249/3/4 251/3/4
f 249/3/4 250/3/4 251/3/4
f 251/3/4 250/3/4 252/3/4
f 253/2/4 254/2/4 256/2/4
f 254/4/4 255/4/4 257/4/4
f 256/2/4 254/2/4 257/2/4
f 257/4/4 255/4/4 258/4/4
f 259/4/4 260/4/4 262/4/4
f 260/2/4 261/2/4 263/2/4
f 262/4/4 260/4/4 263/4/4
f 263/2/4 261/2/4 264/2/4
f 274/3/5 266/3/5 265/3/5
f 275/3/5 266/3/5 274/3/5
f 276/3/5 268/3/5 267/3/5
f 277/3/5 268/3/5 276/3/5
f 278/3/5 270/3/5 269/3/5
f 279/3/5 270/3/5 278/3/5
f 280/3/5 272/3/5 271/3/5
f 281/3/5 272/3/5 280/3/5
f 283/3/5 275/3/5 274/3/5
f 283/4/5 274/4/5 273/4/5
f 284/4/5 276/4/5 275/4/5
f 284/3/5 275/3/5 283/3/5
f 285/3/5 277/3/5 276/3/5
f 285/4/5 276/4/5 284/4/5
f 286/4/5 278/4/5 277/4/5
f 286/3/5 277/3/5 285/3/5
f 287/3/5 279/3/5 278/3/5
f 287/4/5 278/4/5 286/4/5
f 288/4/5 280/4/5 279/4/5
f 288/3/5 279/3/5 287/3/5
f 289/3/5 281/3/5 280/3/5
f 289/4/5 280/4/5 288/4/5
f 290/4/5 282/4/5 281/4/5
f 290/3/5 281/3/5 289/3/5
f 291/4/5 286/4/5 285/4/5
f 291/4/5 289/4/5 288/4/5
f 291/4/5 290/4/5 289/4/5
f 291/4/5 287/4/5 286/4/5
f 291/4/5 284/4/5 283/4/5
f 291/4/5 285/4/5 284/4/5
f 291/4/5 288/4/5 287/4/5
f 291/4/5 283/4/5 273/4/5
f 292/4/5 290/4/5 291/4/5
f 293/4/5 290/4/5 292/4/5
f 294/4/5 290/4/5 293/4/5
f 295/4/5 282/4/5 290/4/5
f 295/4/5 290/4/5 294/4/5
f 296/4/5 282/4/5 295/4/5
f 297/3/5 293/3/5 292/3/5
f 298/4/5 294/4/5 293/4/5
f 298/3/5 293/3/5 297/3/5
f 299/4/5 294/4/5 298/4/5
f 300/4/5 294/4/5 299/4/5
f 301/3/5 295/3/5 294/3/5
f 301/4/5 294/4/5 300/4/5
f 302/3/5 295/3/5 301/3/5
f 303/4/5 300/4/5 299/4/5
f 304/4/5 300/4/5 303/4/5
f 309/4/5 306/4/5 305/4/5
f 310/4/5 306/4/5 309/4/5
f 311/4/5 308/4/5 307/4/5
f 312/4/5 308/4/5 311/4/5
f 313/2/6 314/2/6 315/2/6
f 315/2/6 314/2/6 316/2/6
f 317/4/6 318/4/6 321/4/6
f 321/4/6 318/4/6 322/4/6
f 319/4/6 320/4/6 327/4/6
f 327/4/6 320/4/6 328/4/6
f 324/5/6 325/5/6 329/5/6
f 329/5/6 325/5/6 330/5/6
f 323/3/6 324/3/6 331/3/6
f 324/5/6 329/5/6 332/5/6
f 331/3/6 324/3/6 332/3/6
f 332/5/6 329/5/6 333/5/6
f 330/5/6 325/5/6 334/5/6
f 325/3/6 326/3/6 335/3/6
f 334/5/6 325/5/6 335/5/6
f 335/3/6 326/3/6 336/3/6
f 337/5/6 338/5/6 347/5/6
f 339/5/6 340/5/6 348/5/6
f 348/5/6 340/5/6 349/5/6
f 341/5/6 342/5/6 350/5/6
f 350/5/6 342/5/6 351/5/6
f 343/5/6 344/5/6 352/5/6
f 352/5/6 344/5/6 353/5/6
f 345/5/6 346/5/6 354/5/6
f 352/5/6 353/5/6 355/5/6
f 353/5/6 354/5/6 355/5/6
f 337/5/6 347/5/6 355/5/6
f 348/5/6 349/5/6 355/5/6
f 351/5/6 352/5/6 355/5/6
f 350/5/6 351/5/6 355/5/6
f 349/5/6 350/5/6 355/5/6
f 347/5/6 348/5/6 355/5/6
f 354/5/6 346/5/6 356/5/6
f 355/5/6 354/5/6 356/5/6
f 337/5/6 355/5/6 357/5/6
f 356/5/6 346/5/6 358/5/6
f 337/5/6 357/5/6 359/5/6
f 357/5/6 358/5/6 359/5/6
f 358/5/6 346/5/6 360/5/6
f 359/5/6 358/5/6 360/5/6
f 361/4/6 362/4/6 363/4/6
f 363/4/6 362/4/6 364/4/6
f 365/3/6 366/3/6 373/3/6
f 373/3/6 366/3/6 374/3/6
f 367/3/6 368/3/6 375/3/6
f 375/3/6 368/3/6 376/3/6
f 369/3/6 370/3/6 377/3/6
f 377/3/6 370/3/6 378/3/6
f 371/3/6 372/3/6 379/3/6
f 379/3/6 372/3/6 380/3/6
f 381/3/6 382/3/6 383/3/6
f 383/3/6 382/3/6 384/3/6
