# MagicaVoxel @ ephtracy

# material
mtllib axe.mtl
usemtl palette

# normals
vn -1 0 0
vn 1 0 0
vn 0 0 1
vn 0 0 -1
vn 0 -1 0
vn 0 1 0

# texcoords
vt 0.0410156 0.5
vt 0.162109 0.5
vt 0.587891 0.5
vt 0.728516 0.5
vt 0.958984 0.5
vt 0.982422 0.5
vt 0.986328 0.5
vt 0.990234 0.5

# verts
v -8 0 10
v -8 0 9
v -8 0 4
v -8 0 3
v -8 1 10
v -8 1 9
v -8 1 4
v -8 1 3
v -7 0 11
v -7 0 10
v -7 0 3
v -7 0 2
v -7 1 11
v -7 1 10
v -7 1 3
v -7 1 2
v -6 0 12
v -6 0 11
v -6 0 2
v -6 0 1
v -6 1 12
v -6 1 11
v -6 1 2
v -6 1 1
v -5 0 13
v -5 0 12
v -5 0 1
v -5 0 -0
v -5 1 13
v -5 1 12
v -5 1 1
v -5 1 -0
v -2 0 3
v -2 0 2
v -2 1 3
v -2 1 2
v 2 0 9
v 2 0 8
v 2 0 5
v 2 0 4
v 2 1 9
v 2 1 8
v 2 1 5
v 2 1 4
v 3 0 13
v 3 0 12
v 3 0 -8
v 3 0 -9
v 3 1 13
v 3 1 12
v 3 1 -8
v 3 1 -9
v 4 0 12
v 4 0 9
v 4 0 4
v 4 0 2
v 4 0 -7
v 4 0 -8
v 4 0 -9
v 4 0 -10
v 4 1 12
v 4 1 9
v 4 1 4
v 4 1 2
v 4 1 -7
v 4 1 -8
v 4 1 -9
v 4 1 -10
v 6 0 13
v 6 0 12
v 6 1 13
v 6 1 12
v -3 0 13
v -3 0 12
v -3 0 3
v -3 0 2
v -3 0 1
v -3 0 -0
v -3 1 13
v -3 1 12
v -3 1 3
v -3 1 2
v -3 1 1
v -3 1 -0
v -2 0 12
v -2 0 11
v -2 0 2
v -2 0 1
v -2 1 12
v -2 1 11
v -2 1 2
v -2 1 1
v -1 0 11
v -1 0 10
v -1 0 3
v -1 0 2
v -1 1 11
v -1 1 10
v -1 1 3
v -1 1 2
v 0 0 10
v 0 0 9
v 0 0 4
v 0 0 3
v 0 1 10
v 0 1 9
v 0 1 4
v 0 1 3
v 1 0 9
v 1 0 8
v 1 0 5
v 1 0 4
v 1 1 9
v 1 1 8
v 1 1 5
v 1 1 4
v 4 0 13
v 4 0 12
v 4 1 13
v 4 1 12
v 6 0 12
v 6 0 8
v 6 0 5
v 6 0 2
v 6 0 -7
v 6 0 -8
v 6 0 -9
v 6 0 -10
v 6 1 12
v 6 1 8
v 6 1 5
v 6 1 2
v 6 1 -7
v 6 1 -8
v 6 1 -9
v 6 1 -10
v 7 0 13
v 7 0 12
v 7 0 -8
v 7 0 -9
v 7 1 13
v 7 1 12
v 7 1 -8
v 7 1 -9
v -5 0 13
v -5 1 13
v -3 0 13
v -3 1 13
v 3 0 13
v 3 1 13
v 4 0 13
v 4 1 13
v 6 0 13
v 6 1 13
v 7 0 13
v 7 1 13
v -6 0 12
v -6 1 12
v -5 0 12
v -5 1 12
v -3 0 12
v -3 1 12
v -2 0 12
v -2 1 12
v 4 0 12
v 4 1 12
v 6 0 12
v 6 1 12
v -7 0 11
v -7 1 11
v -6 0 11
v -6 1 11
v -2 0 11
v -2 1 11
v -1 0 11
v -1 1 11
v -8 0 10
v -8 1 10
v -7 0 10
v -7 1 10
v -1 0 10
v -1 1 10
v 0 0 10
v 0 1 10
v 0 0 9
v 0 1 9
v 1 0 9
v 1 1 9
v 2 0 9
v 2 1 9
v 4 0 9
v 4 1 9
v 1 0 8
v 1 1 8
v 2 0 8
v 2 1 8
v -3 0 2
v -3 1 2
v -2 0 2
v -2 1 2
v 3 0 -8
v 3 1 -8
v 4 0 -8
v 4 1 -8
v 6 0 -8
v 6 1 -8
v 7 0 -8
v 7 1 -8
v 3 0 12
v 3 1 12
v 4 0 12
v 4 1 12
v 6 0 12
v 6 1 12
v 7 0 12
v 7 1 12
v 1 0 5
v 1 1 5
v 2 0 5
v 2 1 5
v 0 0 4
v 0 1 4
v 1 0 4
v 1 1 4
v 2 0 4
v 2 1 4
v 4 0 4
v 4 1 4
v -8 0 3
v -8 1 3
v -7 0 3
v -7 1 3
v -3 0 3
v -3 1 3
v -2 0 3
v -2 1 3
v -1 0 3
v -1 1 3
v 0 0 3
v 0 1 3
v -7 0 2
v -7 1 2
v -6 0 2
v -6 1 2
v -2 0 2
v -2 1 2
v -1 0 2
v -1 1 2
v -6 0 1
v -6 1 1
v -5 0 1
v -5 1 1
v -3 0 1
v -3 1 1
v -2 0 1
v -2 1 1
v -5 0 -0
v -5 1 -0
v -3 0 -0
v -3 1 -0
v 3 0 -9
v 3 1 -9
v 4 0 -9
v 4 1 -9
v 6 0 -9
v 6 1 -9
v 7 0 -9
v 7 1 -9
v 4 0 -10
v 4 1 -10
v 6 0 -10
v 6 1 -10
v -5 0 13
v -3 0 13
v 3 0 13
v 4 0 13
v 6 0 13
v 7 0 13
v -6 0 12
v -5 0 12
v -3 0 12
v -2 0 12
v 3 0 12
v 4 0 12
v 6 0 12
v 7 0 12
v -7 0 11
v -6 0 11
v -5 0 11
v -3 0 11
v -2 0 11
v -1 0 11
v -8 0 10
v -7 0 10
v -6 0 10
v -2 0 10
v -1 0 10
v 0 0 10
v -8 0 9
v -7 0 9
v -1 0 9
v 0 0 9
v 1 0 9
v 2 0 9
v 4 0 9
v 0 0 8
v 1 0 8
v 2 0 8
v 3 0 8
v 6 0 8
v 0 0 5
v 1 0 5
v 2 0 5
v 3 0 5
v 6 0 5
v -8 0 4
v -7 0 4
v -1 0 4
v 0 0 4
v 1 0 4
v 2 0 4
v 4 0 4
v -8 0 3
v -7 0 3
v -6 0 3
v -3 0 3
v -2 0 3
v -1 0 3
v 0 0 3
v -7 0 2
v -6 0 2
v -5 0 2
v -3 0 2
v -2 0 2
v -1 0 2
v 4 0 2
v 6 0 2
v -6 0 1
v -5 0 1
v -3 0 1
v -2 0 1
v -5 0 -0
v -3 0 -0
v 4 0 -7
v 6 0 -7
v 3 0 -8
v 4 0 -8
v 6 0 -8
v 7 0 -8
v 3 0 -9
v 4 0 -9
v 6 0 -9
v 7 0 -9
v 4 0 -10
v 6 0 -10
v -5 1 13
v -3 1 13
v 3 1 13
v 4 1 13
v 6 1 13
v 7 1 13
v -6 1 12
v -5 1 12
v -3 1 12
v -2 1 12
v 3 1 12
v 4 1 12
v 6 1 12
v 7 1 12
v -7 1 11
v -6 1 11
v -5 1 11
v -3 1 11
v -2 1 11
v -1 1 11
v -8 1 10
v -7 1 10
v -6 1 10
v -2 1 10
v -1 1 10
v 0 1 10
v -8 1 9
v -7 1 9
v -1 1 9
v 0 1 9
v 1 1 9
v 2 1 9
v 4 1 9
v 0 1 8
v 1 1 8
v 2 1 8
v 3 1 8
v 6 1 8
v 0 1 5
v 1 1 5
v 2 1 5
v 3 1 5
v 6 1 5
v -8 1 4
v -7 1 4
v -1 1 4
v 0 1 4
v 1 1 4
v 2 1 4
v 4 1 4
v -8 1 3
v -7 1 3
v -6 1 3
v -3 1 3
v -2 1 3
v -1 1 3
v 0 1 3
v -7 1 2
v -6 1 2
v -5 1 2
v -3 1 2
v -2 1 2
v -1 1 2
v 4 1 2
v 6 1 2
v -6 1 1
v -5 1 1
v -3 1 1
v -2 1 1
v -5 1 -0
v -3 1 -0
v 4 1 -7
v 6 1 -7
v 3 1 -8
v 4 1 -8
v 6 1 -8
v 7 1 -8
v 3 1 -9
v 4 1 -9
v 6 1 -9
v 7 1 -9
v 4 1 -10
v 6 1 -10

# faces
f 5/3/1 2/3/1 1/3/1
f 6/5/1 3/5/1 2/5/1
f 6/3/1 2/3/1 5/3/1
f 7/4/1 4/4/1 3/4/1
f 7/5/1 3/5/1 6/5/1
f 8/4/1 4/4/1 7/4/1
f 13/3/1 10/3/1 9/3/1
f 14/3/1 10/3/1 13/3/1
f 15/3/1 12/3/1 11/3/1
f 16/3/1 12/3/1 15/3/1
f 21/3/1 18/3/1 17/3/1
f 22/3/1 18/3/1 21/3/1
f 23/3/1 20/3/1 19/3/1
f 24/3/1 20/3/1 23/3/1
f 29/3/1 26/3/1 25/3/1
f 30/3/1 26/3/1 29/3/1
f 31/3/1 28/3/1 27/3/1
f 32/3/1 28/3/1 31/3/1
f 35/3/1 34/3/1 33/3/1
f 36/3/1 34/3/1 35/3/1
f 41/3/1 38/3/1 37/3/1
f 42/3/1 38/3/1 41/3/1
f 43/3/1 40/3/1 39/3/1
f 44/3/1 40/3/1 43/3/1
f 49/3/1 46/3/1 45/3/1
f 50/3/1 46/3/1 49/3/1
f 51/3/1 48/3/1 47/3/1
f 52/3/1 48/3/1 51/3/1
f 61/3/1 54/3/1 53/3/1
f 62/3/1 54/3/1 61/3/1
f 63/3/1 56/3/1 55/3/1
f 64/2/1 57/2/1 56/2/1
f 64/3/1 56/3/1 63/3/1
f 65/3/1 58/3/1 57/3/1
f 65/2/1 57/2/1 64/2/1
f 66/3/1 58/3/1 65/3/1
f 67/3/1 60/3/1 59/3/1
f 68/3/1 60/3/1 67/3/1
f 71/3/1 70/3/1 69/3/1
f 72/3/1 70/3/1 71/3/1
f 73/3/2 74/3/2 79/3/2
f 79/3/2 74/3/2 80/3/2
f 75/7/2 76/7/2 81/7/2
f 81/7/2 76/7/2 82/7/2
f 77/3/2 78/3/2 83/3/2
f 83/3/2 78/3/2 84/3/2
f 85/3/2 86/3/2 89/3/2
f 89/3/2 86/3/2 90/3/2
f 87/3/2 88/3/2 91/3/2
f 91/3/2 88/3/2 92/3/2
f 93/3/2 94/3/2 97/3/2
f 97/3/2 94/3/2 98/3/2
f 95/3/2 96/3/2 99/3/2
f 99/3/2 96/3/2 100/3/2
f 101/3/2 102/3/2 105/3/2
f 105/3/2 102/3/2 106/3/2
f 103/3/2 104/3/2 107/3/2
f 107/3/2 104/3/2 108/3/2
f 109/3/2 110/3/2 113/3/2
f 113/3/2 110/3/2 114/3/2
f 111/3/2 112/3/2 115/3/2
f 115/3/2 112/3/2 116/3/2
f 117/3/2 118/3/2 119/3/2
f 119/3/2 118/3/2 120/3/2
f 121/3/2 122/3/2 129/3/2
f 122/1/2 123/1/2 130/1/2
f 129/3/2 122/3/2 130/3/2
f 123/3/2 124/3/2 131/3/2
f 130/1/2 123/1/2 131/1/2
f 124/2/2 125/2/2 132/2/2
f 131/3/2 124/3/2 132/3/2
f 125/3/2 126/3/2 133/3/2
f 132/2/2 125/2/2 133/2/2
f 133/3/2 126/3/2 134/3/2
f 127/3/2 128/3/2 135/3/2
f 135/3/2 128/3/2 136/3/2
f 137/3/2 138/3/2 141/3/2
f 141/3/2 138/3/2 142/3/2
f 139/3/2 140/3/2 143/3/2
f 143/3/2 140/3/2 144/3/2
f 147/3/3 146/3/3 145/3/3
f 148/3/3 146/3/3 147/3/3
f 151/3/3 150/3/3 149/3/3
f 152/3/3 150/3/3 151/3/3
f 155/3/3 154/3/3 153/3/3
f 156/3/3 154/3/3 155/3/3
f 159/3/3 158/3/3 157/3/3
f 160/3/3 158/3/3 159/3/3
f 163/3/3 162/3/3 161/3/3
f 164/3/3 162/3/3 163/3/3
f 167/3/3 166/3/3 165/3/3
f 168/3/3 166/3/3 167/3/3
f 171/3/3 170/3/3 169/3/3
f 172/3/3 170/3/3 171/3/3
f 175/3/3 174/3/3 173/3/3
f 176/3/3 174/3/3 175/3/3
f 179/3/3 178/3/3 177/3/3
f 180/3/3 178/3/3 179/3/3
f 183/3/3 182/3/3 181/3/3
f 184/3/3 182/3/3 183/3/3
f 187/3/3 186/3/3 185/3/3
f 188/3/3 186/3/3 187/3/3
f 191/3/3 190/3/3 189/3/3
f 192/3/3 190/3/3 191/3/3
f 195/3/3 194/3/3 193/3/3
f 196/3/3 194/3/3 195/3/3
f 199/3/3 198/3/3 197/3/3
f 200/3/3 198/3/3 199/3/3
f 203/3/3 202/3/3 201/3/3
f 204/3/3 202/3/3 203/3/3
f 207/3/3 206/3/3 205/3/3
f 208/3/3 206/3/3 207/3/3
f 209/3/4 210/3/4 211/3/4
f 211/3/4 210/3/4 212/3/4
f 213/3/4 214/3/4 215/3/4
f 215/3/4 214/3/4 216/3/4
f 217/3/4 218/3/4 219/3/4
f 219/3/4 218/3/4 220/3/4
f 221/3/4 222/3/4 223/3/4
f 223/3/4 222/3/4 224/3/4
f 225/3/4 226/3/4 227/3/4
f 227/3/4 226/3/4 228/3/4
f 229/4/4 230/4/4 231/4/4
f 231/4/4 230/4/4 232/4/4
f 233/8/4 234/8/4 235/8/4
f 235/8/4 234/8/4 236/8/4
f 237/3/4 238/3/4 239/3/4
f 239/3/4 238/3/4 240/3/4
f 241/3/4 242/3/4 243/3/4
f 243/3/4 242/3/4 244/3/4
f 245/3/4 246/3/4 247/3/4
f 247/3/4 246/3/4 248/3/4
f 249/3/4 250/3/4 251/3/4
f 251/3/4 250/3/4 252/3/4
f 253/3/4 254/3/4 255/3/4
f 255/3/4 254/3/4 256/3/4
f 257/3/4 258/3/4 259/3/4
f 259/3/4 258/3/4 260/3/4
f 261/3/4 262/3/4 263/3/4
f 263/3/4 262/3/4 264/3/4
f 265/3/4 266/3/4 267/3/4
f 267/3/4 266/3/4 268/3/4
f 269/3/4 270/3/4 271/3/4
f 271/3/4 270/3/4 272/3/4
f 280/3/5 274/3/5 273/3/5
f 281/3/5 274/3/5 280/3/5
f 283/3/5 276/3/5 275/3/5
f 284/3/5 276/3/5 283/3/5
f 285/3/5 278/3/5 277/3/5
f 286/3/5 278/3/5 285/3/5
f 288/3/5 280/3/5 279/3/5
f 289/7/5 281/7/5 280/7/5
f 289/3/5 280/3/5 288/3/5
f 290/3/5 282/3/5 281/3/5
f 290/7/5 281/7/5 289/7/5
f 291/3/5 282/3/5 290/3/5
f 294/3/5 288/3/5 287/3/5
f 295/6/5 289/6/5 288/6/5
f 295/3/5 288/3/5 294/3/5
f 296/3/5 292/3/5 291/3/5
f 296/8/5 291/8/5 290/8/5
f 297/3/5 292/3/5 296/3/5
f 299/3/5 294/3/5 293/3/5
f 300/5/5 295/5/5 294/5/5
f 300/3/5 294/3/5 299/3/5
f 301/3/5 298/3/5 297/3/5
f 301/8/5 297/8/5 296/8/5
f 302/3/5 298/3/5 301/3/5
f 305/3/5 285/3/5 284/3/5
f 306/3/5 303/3/5 302/3/5
f 306/8/5 302/8/5 301/8/5
f 307/3/5 303/3/5 306/3/5
f 308/3/5 305/3/5 304/3/5
f 309/3/5 305/3/5 308/3/5
f 310/3/5 285/3/5 305/3/5
f 310/3/5 305/3/5 309/3/5
f 311/8/5 307/8/5 306/8/5
f 311/8/5 306/8/5 301/8/5
f 312/3/5 309/3/5 308/3/5
f 312/8/5 307/8/5 311/8/5
f 312/3/5 308/3/5 307/3/5
f 313/3/5 309/3/5 312/3/5
f 314/1/5 310/1/5 309/1/5
f 314/3/5 309/3/5 313/3/5
f 315/1/5 310/1/5 314/1/5
f 316/5/5 300/5/5 299/5/5
f 317/5/5 295/5/5 300/5/5
f 317/5/5 300/5/5 316/5/5
f 318/8/5 301/8/5 296/8/5
f 318/8/5 311/8/5 301/8/5
f 319/3/5 312/3/5 311/3/5
f 319/8/5 311/8/5 318/8/5
f 320/3/5 312/3/5 319/3/5
f 321/3/5 315/3/5 314/3/5
f 321/3/5 314/3/5 313/3/5
f 322/3/5 315/3/5 321/3/5
f 323/4/5 317/4/5 316/4/5
f 324/5/5 295/5/5 317/5/5
f 324/4/5 317/4/5 323/4/5
f 325/6/5 289/6/5 295/6/5
f 325/5/5 295/5/5 324/5/5
f 326/7/5 290/7/5 289/7/5
f 326/8/5 296/8/5 290/8/5
f 326/8/5 318/8/5 296/8/5
f 327/8/5 318/8/5 326/8/5
f 328/3/5 319/3/5 318/3/5
f 328/8/5 318/8/5 327/8/5
f 329/3/5 319/3/5 328/3/5
f 330/3/5 325/3/5 324/3/5
f 331/6/5 289/6/5 325/6/5
f 331/3/5 325/3/5 330/3/5
f 332/7/5 326/7/5 289/7/5
f 332/6/5 289/6/5 331/6/5
f 333/7/5 326/7/5 332/7/5
f 334/3/5 328/3/5 327/3/5
f 335/3/5 328/3/5 334/3/5
f 336/3/5 315/3/5 322/3/5
f 337/3/5 315/3/5 336/3/5
f 338/3/5 332/3/5 331/3/5
f 339/7/5 333/7/5 332/7/5
f 339/3/5 332/3/5 338/3/5
f 340/3/5 334/3/5 333/3/5
f 340/7/5 333/7/5 339/7/5
f 341/3/5 334/3/5 340/3/5
f 342/3/5 340/3/5 339/3/5
f 343/3/5 340/3/5 342/3/5
f 344/2/5 337/2/5 336/2/5
f 345/2/5 337/2/5 344/2/5
f 347/3/5 345/3/5 344/3/5
f 348/3/5 345/3/5 347/3/5
f 350/3/5 348/3/5 347/3/5
f 350/3/5 349/3/5 348/3/5
f 350/3/5 347/3/5 346/3/5
f 351/3/5 349/3/5 350/3/5
f 352/3/5 349/3/5 351/3/5
f 353/3/5 349/3/5 352/3/5
f 354/3/5 352/3/5 351/3/5
f 355/3/5 352/3/5 354/3/5
f 356/3/6 357/3/6 363/3/6
f 363/3/6 357/3/6 364/3/6
f 358/3/6 359/3/6 366/3/6
f 366/3/6 359/3/6 367/3/6
f 360/3/6 361/3/6 368/3/6
f 368/3/6 361/3/6 369/3/6
f 362/3/6 363/3/6 371/3/6
f 363/7/6 364/7/6 372/7/6
f 371/3/6 363/3/6 372/3/6
f 364/3/6 365/3/6 373/3/6
f 372/7/6 364/7/6 373/7/6
f 373/3/6 365/3/6 374/3/6
f 370/3/6 371/3/6 377/3/6
f 371/6/6 372/6/6 378/6/6
f 377/3/6 371/3/6 378/3/6
f 374/3/6 375/3/6 379/3/6
f 373/8/6 374/8/6 379/8/6
f 379/3/6 375/3/6 380/3/6
f 376/3/6 377/3/6 382/3/6
f 377/5/6 378/5/6 383/5/6
f 382/3/6 377/3/6 383/3/6
f 380/3/6 381/3/6 384/3/6
f 379/8/6 380/8/6 384/8/6
f 384/3/6 381/3/6 385/3/6
f 367/3/6 368/3/6 388/3/6
f 385/3/6 386/3/6 389/3/6
f 384/8/6 385/8/6 389/8/6
f 389/3/6 386/3/6 390/3/6
f 387/3/6 388/3/6 391/3/6
f 391/3/6 388/3/6 392/3/6
f 388/3/6 368/3/6 393/3/6
f 392/3/6 388/3/6 393/3/6
f 389/8/6 390/8/6 394/8/6
f 384/8/6 389/8/6 394/8/6
f 391/3/6 392/3/6 395/3/6
f 394/8/6 390/8/6 395/8/6
f 390/3/6 391/3/6 395/3/6
f 395/3/6 392/3/6 396/3/6
f 392/1/6 393/1/6 397/1/6
f 396/3/6 392/3/6 397/3/6
f 397/1/6 393/1/6 398/1/6
f 382/5/6 383/5/6 399/5/6
f 383/5/6 378/5/6 400/5/6
f 399/5/6 383/5/6 400/5/6
f 379/8/6 384/8/6 401/8/6
f 384/8/6 394/8/6 401/8/6
f 394/3/6 395/3/6 402/3/6
f 401/8/6 394/8/6 402/8/6
f 402/3/6 395/3/6 403/3/6
f 397/3/6 398/3/6 404/3/6
f 396/3/6 397/3/6 404/3/6
f 404/3/6 398/3/6 405/3/6
f 399/4/6 400/4/6 406/4/6
f 400/5/6 378/5/6 407/5/6
f 406/4/6 400/4/6 407/4/6
f 378/6/6 372/6/6 408/6/6
f 407/5/6 378/5/6 408/5/6
f 372/7/6 373/7/6 409/7/6
f 373/8/6 379/8/6 409/8/6
f 379/8/6 401/8/6 409/8/6
f 409/8/6 401/8/6 410/8/6
f 401/3/6 402/3/6 411/3/6
f 410/8/6 401/8/6 411/8/6
f 411/3/6 402/3/6 412/3/6
f 407/3/6 408/3/6 413/3/6
f 408/6/6 372/6/6 414/6/6
f 413/3/6 408/3/6 414/3/6
f 372/7/6 409/7/6 415/7/6
f 414/6/6 372/6/6 415/6/6
f 415/7/6 409/7/6 416/7/6
f 410/3/6 411/3/6 417/3/6
f 417/3/6 411/3/6 418/3/6
f 405/3/6 398/3/6 419/3/6
f 419/3/6 398/3/6 420/3/6
f 414/3/6 415/3/6 421/3/6
f 415/7/6 416/7/6 422/7/6
f 421/3/6 415/3/6 422/3/6
f 416/3/6 417/3/6 423/3/6
f 422/7/6 416/7/6 423/7/6
f 423/3/6 417/3/6 424/3/6
f 422/3/6 423/3/6 425/3/6
f 425/3/6 423/3/6 426/3/6
f 419/2/6 420/2/6 427/2/6
f 427/2/6 420/2/6 428/2/6
f 427/3/6 428/3/6 430/3/6
f 430/3/6 428/3/6 431/3/6
f 430/3/6 431/3/6 433/3/6
f 431/3/6 432/3/6 433/3/6
f 429/3/6 430/3/6 433/3/6
f 433/3/6 432/3/6 434/3/6
f 434/3/6 432/3/6 435/3/6
f 435/3/6 432/3/6 436/3/6
f 434/3/6 435/3/6 437/3/6
f 437/3/6 435/3/6 438/3/6
