# MagicaVoxel @ ephtracy

# material
mtllib gost.mtl
usemtl palette

# normals
vn -1 0 0
vn 1 0 0
vn 0 0 1
vn 0 0 -1
vn 0 -1 0
vn 0 1 0

# texcoords
vt 0.978516 0.5
vt 0.982422 0.5
vt 0.990234 0.5

# verts
v -22.5 20 18.5
v -22.5 20 -18.5
v -22.5 28 18.5
v -22.5 28 -18.5
v -18.5 0 18.5
v -18.5 0 12.5
v -18.5 0 6.5
v -18.5 0 -6.5
v -18.5 0 -12.5
v -18.5 0 -18.5
v -18.5 4 12.5
v -18.5 4 6.5
v -18.5 4 -6.5
v -18.5 4 -12.5
v -18.5 20 18.5
v -18.5 20 -18.5
v -18.5 28 18.5
v -18.5 28 -18.5
v -18.5 41 18.5
v -18.5 41 -18.5
v -14.5 3 12.5
v -14.5 3 6.5
v -14.5 3 -6.5
v -14.5 3 -12.5
v -14.5 4 12.5
v -14.5 4 6.5
v -14.5 4 -6.5
v -14.5 4 -12.5
v -13.5 30 22.5
v -13.5 30 18.5
v -13.5 36 22.5
v -13.5 36 18.5
v -11.5 15 19.5
v -11.5 15 18.5
v -11.5 23 19.5
v -11.5 23 18.5
v -4.5 9 19.5
v -4.5 9 18.5
v -4.5 15 19.5
v -4.5 15 18.5
v 8.5 30 22.5
v 8.5 30 18.5
v 8.5 36 22.5
v 8.5 36 18.5
v 14.5 0 18.5
v 14.5 0 12.5
v 14.5 0 6.5
v 14.5 0 -6.5
v 14.5 0 -12.5
v 14.5 0 -18.5
v 14.5 3 18.5
v 14.5 3 12.5
v 14.5 3 6.5
v 14.5 3 -6.5
v 14.5 3 -12.5
v 14.5 3 -18.5
v -14.5 0 18.5
v -14.5 0 12.5
v -14.5 0 6.5
v -14.5 0 -6.5
v -14.5 0 -12.5
v -14.5 0 -18.5
v -14.5 3 18.5
v -14.5 3 12.5
v -14.5 3 6.5
v -14.5 3 -6.5
v -14.5 3 -12.5
v -14.5 3 -18.5
v -8.5 30 22.5
v -8.5 30 18.5
v -8.5 36 22.5
v -8.5 36 18.5
v 4.5 9 19.5
v 4.5 9 18.5
v 4.5 15 19.5
v 4.5 15 18.5
v 11.5 15 19.5
v 11.5 15 18.5
v 11.5 23 19.5
v 11.5 23 18.5
v 13.5 30 22.5
v 13.5 30 18.5
v 13.5 36 22.5
v 13.5 36 18.5
v 14.5 3 12.5
v 14.5 3 6.5
v 14.5 3 -6.5
v 14.5 3 -12.5
v 14.5 4 12.5
v 14.5 4 6.5
v 14.5 4 -6.5
v 14.5 4 -12.5
v 18.5 0 18.5
v 18.5 0 12.5
v 18.5 0 6.5
v 18.5 0 -6.5
v 18.5 0 -12.5
v 18.5 0 -18.5
v 18.5 4 12.5
v 18.5 4 6.5
v 18.5 4 -6.5
v 18.5 4 -12.5
v 18.5 20 18.5
v 18.5 20 -18.5
v 18.5 28 18.5
v 18.5 28 -18.5
v 18.5 41 18.5
v 18.5 41 -18.5
v 22.5 20 18.5
v 22.5 20 -18.5
v 22.5 28 18.5
v 22.5 28 -18.5
v -13.5 30 22.5
v -13.5 36 22.5
v -8.5 30 22.5
v -8.5 36 22.5
v 8.5 30 22.5
v 8.5 36 22.5
v 13.5 30 22.5
v 13.5 36 22.5
v -11.5 15 19.5
v -11.5 23 19.5
v -4.5 9 19.5
v -4.5 15 19.5
v 4.5 9 19.5
v 4.5 15 19.5
v 11.5 15 19.5
v 11.5 23 19.5
v -22.5 20 18.5
v -22.5 28 18.5
v -18.5 0 18.5
v -18.5 20 18.5
v -18.5 28 18.5
v -18.5 41 18.5
v -14.5 0 18.5
v -14.5 3 18.5
v -13.5 30 18.5
v -13.5 36 18.5
v -11.5 15 18.5
v -11.5 23 18.5
v -8.5 30 18.5
v -8.5 36 18.5
v -4.5 9 18.5
v -4.5 15 18.5
v 4.5 9 18.5
v 4.5 15 18.5
v 8.5 30 18.5
v 8.5 36 18.5
v 11.5 15 18.5
v 11.5 23 18.5
v 13.5 30 18.5
v 13.5 36 18.5
v 14.5 0 18.5
v 14.5 3 18.5
v 18.5 0 18.5
v 18.5 20 18.5
v 18.5 28 18.5
v 18.5 41 18.5
v 22.5 20 18.5
v 22.5 28 18.5
v -18.5 0 6.5
v -18.5 4 6.5
v -14.5 0 6.5
v -14.5 3 6.5
v -14.5 4 6.5
v 14.5 0 6.5
v 14.5 3 6.5
v 14.5 4 6.5
v 18.5 0 6.5
v 18.5 4 6.5
v -18.5 0 -12.5
v -18.5 4 -12.5
v -14.5 0 -12.5
v -14.5 3 -12.5
v -14.5 4 -12.5
v 14.5 0 -12.5
v 14.5 3 -12.5
v 14.5 4 -12.5
v 18.5 0 -12.5
v 18.5 4 -12.5
v -18.5 0 12.5
v -18.5 4 12.5
v -14.5 0 12.5
v -14.5 3 12.5
v -14.5 4 12.5
v 14.5 0 12.5
v 14.5 3 12.5
v 14.5 4 12.5
v 18.5 0 12.5
v 18.5 4 12.5
v -18.5 0 -6.5
v -18.5 4 -6.5
v -14.5 0 -6.5
v -14.5 3 -6.5
v -14.5 4 -6.5
v 14.5 0 -6.5
v 14.5 3 -6.5
v 14.5 4 -6.5
v 18.5 0 -6.5
v 18.5 4 -6.5
v -22.5 20 -18.5
v -22.5 28 -18.5
v -18.5 0 -18.5
v -18.5 20 -18.5
v -18.5 28 -18.5
v -18.5 41 -18.5
v -14.5 0 -18.5
v -14.5 3 -18.5
v 14.5 0 -18.5
v 14.5 3 -18.5
v 18.5 0 -18.5
v 18.5 20 -18.5
v 18.5 28 -18.5
v 18.5 41 -18.5
v 22.5 20 -18.5
v 22.5 28 -18.5
v -18.5 0 18.5
v -14.5 0 18.5
v 14.5 0 18.5
v 18.5 0 18.5
v -18.5 0 12.5
v -14.5 0 12.5
v 14.5 0 12.5
v 18.5 0 12.5
v -18.5 0 6.5
v -14.5 0 6.5
v 14.5 0 6.5
v 18.5 0 6.5
v -18.5 0 -6.5
v -14.5 0 -6.5
v 14.5 0 -6.5
v 18.5 0 -6.5
v -18.5 0 -12.5
v -14.5 0 -12.5
v 14.5 0 -12.5
v 18.5 0 -12.5
v -18.5 0 -18.5
v -14.5 0 -18.5
v 14.5 0 -18.5
v 18.5 0 -18.5
v -14.5 3 18.5
v 14.5 3 18.5
v -14.5 3 12.5
v 14.5 3 12.5
v -14.5 3 6.5
v 14.5 3 6.5
v -14.5 3 -6.5
v 14.5 3 -6.5
v -14.5 3 -12.5
v 14.5 3 -12.5
v -14.5 3 -18.5
v 14.5 3 -18.5
v -18.5 4 12.5
v -14.5 4 12.5
v 14.5 4 12.5
v 18.5 4 12.5
v -18.5 4 6.5
v -14.5 4 6.5
v 14.5 4 6.5
v 18.5 4 6.5
v -18.5 4 -6.5
v -14.5 4 -6.5
v 14.5 4 -6.5
v 18.5 4 -6.5
v -18.5 4 -12.5
v -14.5 4 -12.5
v 14.5 4 -12.5
v 18.5 4 -12.5
v -4.5 9 19.5
v 4.5 9 19.5
v -4.5 9 18.5
v 4.5 9 18.5
v -11.5 15 19.5
v -4.5 15 19.5
v 4.5 15 19.5
v 11.5 15 19.5
v -11.5 15 18.5
v -4.5 15 18.5
v 4.5 15 18.5
v 11.5 15 18.5
v -22.5 20 18.5
v -18.5 20 18.5
v 18.5 20 18.5
v 22.5 20 18.5
v -22.5 20 -18.5
v -18.5 20 -18.5
v 18.5 20 -18.5
v 22.5 20 -18.5
v -13.5 30 22.5
v -8.5 30 22.5
v 8.5 30 22.5
v 13.5 30 22.5
v -13.5 30 18.5
v -8.5 30 18.5
v 8.5 30 18.5
v 13.5 30 18.5
v -11.5 23 19.5
v 11.5 23 19.5
v -11.5 23 18.5
v 11.5 23 18.5
v -22.5 28 18.5
v -18.5 28 18.5
v 18.5 28 18.5
v 22.5 28 18.5
v -22.5 28 -18.5
v -18.5 28 -18.5
v 18.5 28 -18.5
v 22.5 28 -18.5
v -13.5 36 22.5
v -8.5 36 22.5
v 8.5 36 22.5
v 13.5 36 22.5
v -13.5 36 18.5
v -8.5 36 18.5
v 8.5 36 18.5
v 13.5 36 18.5
v -18.5 41 18.5
v 18.5 41 18.5
v -18.5 41 -18.5
v 18.5 41 -18.5

# faces
f 3/2/1 2/2/1 1/2/1
f 4/2/1 2/2/1 3/2/1
f 11/2/1 6/2/1 5/2/1
f 12/2/1 8/2/1 7/2/1
f 13/2/1 8/2/1 12/2/1
f 14/2/1 10/2/1 9/2/1
f 15/2/1 13/2/1 12/2/1
f 15/2/1 14/2/1 13/2/1
f 15/2/1 11/2/1 5/2/1
f 15/2/1 12/2/1 11/2/1
f 16/2/1 10/2/1 14/2/1
f 16/2/1 14/2/1 15/2/1
f 19/2/1 18/2/1 17/2/1
f 20/2/1 18/2/1 19/2/1
f 25/2/1 22/2/1 21/2/1
f 26/2/1 22/2/1 25/2/1
f 27/2/1 24/2/1 23/2/1
f 28/2/1 24/2/1 27/2/1
f 31/1/1 30/1/1 29/1/1
f 32/1/1 30/1/1 31/1/1
f 35/3/1 34/3/1 33/3/1
f 36/3/1 34/3/1 35/3/1
f 39/3/1 38/3/1 37/3/1
f 40/3/1 38/3/1 39/3/1
f 43/1/1 42/1/1 41/1/1
f 44/1/1 42/1/1 43/1/1
f 51/2/1 46/2/1 45/2/1
f 52/2/1 46/2/1 51/2/1
f 53/2/1 48/2/1 47/2/1
f 54/2/1 48/2/1 53/2/1
f 55/2/1 50/2/1 49/2/1
f 56/2/1 50/2/1 55/2/1
f 57/2/2 58/2/2 63/2/2
f 63/2/2 58/2/2 64/2/2
f 59/2/2 60/2/2 65/2/2
f 65/2/2 60/2/2 66/2/2
f 61/2/2 62/2/2 67/2/2
f 67/2/2 62/2/2 68/2/2
f 69/1/2 70/1/2 71/1/2
f 71/1/2 70/1/2 72/1/2
f 73/3/2 74/3/2 75/3/2
f 75/3/2 74/3/2 76/3/2
f 77/3/2 78/3/2 79/3/2
f 79/3/2 78/3/2 80/3/2
f 81/1/2 82/1/2 83/1/2
f 83/1/2 82/1/2 84/1/2
f 85/2/2 86/2/2 89/2/2
f 89/2/2 86/2/2 90/2/2
f 87/2/2 88/2/2 91/2/2
f 91/2/2 88/2/2 92/2/2
f 93/2/2 94/2/2 99/2/2
f 95/2/2 96/2/2 100/2/2
f 100/2/2 96/2/2 101/2/2
f 97/2/2 98/2/2 102/2/2
f 100/2/2 101/2/2 103/2/2
f 101/2/2 102/2/2 103/2/2
f 93/2/2 99/2/2 103/2/2
f 99/2/2 100/2/2 103/2/2
f 102/2/2 98/2/2 104/2/2
f 103/2/2 102/2/2 104/2/2
f 105/2/2 106/2/2 107/2/2
f 107/2/2 106/2/2 108/2/2
f 109/2/2 110/2/2 111/2/2
f 111/2/2 110/2/2 112/2/2
f 115/1/3 114/1/3 113/1/3
f 116/1/3 114/1/3 115/1/3
f 119/1/3 118/1/3 117/1/3
f 120/1/3 118/1/3 119/1/3
f 124/3/3 122/3/3 121/3/3
f 125/3/3 124/3/3 123/3/3
f 126/3/3 122/3/3 124/3/3
f 126/3/3 124/3/3 125/3/3
f 127/3/3 122/3/3 126/3/3
f 128/3/3 122/3/3 127/3/3
f 132/2/3 130/2/3 129/2/3
f 133/2/3 130/2/3 132/2/3
f 135/2/3 132/2/3 131/2/3
f 135/2/3 134/2/3 133/2/3
f 135/2/3 133/2/3 132/2/3
f 136/2/3 134/2/3 135/2/3
f 137/2/3 134/2/3 136/2/3
f 138/2/3 134/2/3 137/2/3
f 139/2/3 137/2/3 136/2/3
f 140/2/3 137/2/3 139/2/3
f 141/2/3 137/2/3 140/2/3
f 142/2/3 134/2/3 138/2/3
f 143/2/3 139/2/3 136/2/3
f 144/2/3 139/2/3 143/2/3
f 145/2/3 143/2/3 136/2/3
f 147/2/3 141/2/3 140/2/3
f 147/2/3 142/2/3 141/2/3
f 148/2/3 134/2/3 142/2/3
f 148/2/3 142/2/3 147/2/3
f 149/2/3 146/2/3 145/2/3
f 150/2/3 147/2/3 140/2/3
f 151/2/3 147/2/3 150/2/3
f 151/2/3 150/2/3 149/2/3
f 152/2/3 134/2/3 148/2/3
f 154/2/3 151/2/3 149/2/3
f 154/2/3 152/2/3 151/2/3
f 154/2/3 145/2/3 136/2/3
f 154/2/3 149/2/3 145/2/3
f 155/2/3 154/2/3 153/2/3
f 156/2/3 152/2/3 154/2/3
f 156/2/3 154/2/3 155/2/3
f 157/2/3 152/2/3 156/2/3
f 158/2/3 134/2/3 152/2/3
f 158/2/3 152/2/3 157/2/3
f 159/2/3 157/2/3 156/2/3
f 160/2/3 157/2/3 159/2/3
f 163/2/3 162/2/3 161/2/3
f 164/2/3 162/2/3 163/2/3
f 165/2/3 162/2/3 164/2/3
f 169/2/3 167/2/3 166/2/3
f 169/2/3 168/2/3 167/2/3
f 170/2/3 168/2/3 169/2/3
f 173/2/3 172/2/3 171/2/3
f 174/2/3 172/2/3 173/2/3
f 175/2/3 172/2/3 174/2/3
f 179/2/3 177/2/3 176/2/3
f 179/2/3 178/2/3 177/2/3
f 180/2/3 178/2/3 179/2/3
f 181/2/4 182/2/4 183/2/4
f 183/2/4 182/2/4 184/2/4
f 184/2/4 182/2/4 185/2/4
f 186/2/4 187/2/4 189/2/4
f 187/2/4 188/2/4 189/2/4
f 189/2/4 188/2/4 190/2/4
f 191/2/4 192/2/4 193/2/4
f 193/2/4 192/2/4 194/2/4
f 194/2/4 192/2/4 195/2/4
f 196/2/4 197/2/4 199/2/4
f 197/2/4 198/2/4 199/2/4
f 199/2/4 198/2/4 200/2/4
f 201/2/4 202/2/4 204/2/4
f 204/2/4 202/2/4 205/2/4
f 203/2/4 204/2/4 207/2/4
f 205/2/4 206/2/4 207/2/4
f 204/2/4 205/2/4 207/2/4
f 207/2/4 206/2/4 208/2/4
f 208/2/4 206/2/4 210/2/4
f 209/2/4 210/2/4 211/2/4
f 210/2/4 206/2/4 212/2/4
f 211/2/4 210/2/4 212/2/4
f 212/2/4 206/2/4 213/2/4
f 213/2/4 206/2/4 214/2/4
f 212/2/4 213/2/4 215/2/4
f 215/2/4 213/2/4 216/2/4
f 221/2/5 218/2/5 217/2/5
f 222/2/5 218/2/5 221/2/5
f 223/2/5 220/2/5 219/2/5
f 224/2/5 220/2/5 223/2/5
f 229/2/5 226/2/5 225/2/5
f 230/2/5 226/2/5 229/2/5
f 231/2/5 228/2/5 227/2/5
f 232/2/5 228/2/5 231/2/5
f 237/2/5 234/2/5 233/2/5
f 238/2/5 234/2/5 237/2/5
f 239/2/5 236/2/5 235/2/5
f 240/2/5 236/2/5 239/2/5
f 243/2/5 242/2/5 241/2/5
f 244/2/5 242/2/5 243/2/5
f 245/2/5 244/2/5 243/2/5
f 246/2/5 244/2/5 245/2/5
f 247/2/5 246/2/5 245/2/5
f 248/2/5 246/2/5 247/2/5
f 249/2/5 248/2/5 247/2/5
f 250/2/5 248/2/5 249/2/5
f 251/2/5 250/2/5 249/2/5
f 252/2/5 250/2/5 251/2/5
f 257/2/5 254/2/5 253/2/5
f 258/2/5 254/2/5 257/2/5
f 259/2/5 256/2/5 255/2/5
f 260/2/5 256/2/5 259/2/5
f 265/2/5 262/2/5 261/2/5
f 266/2/5 262/2/5 265/2/5
f 267/2/5 264/2/5 263/2/5
f 268/2/5 264/2/5 267/2/5
f 271/3/5 270/3/5 269/3/5
f 272/3/5 270/3/5 271/3/5
f 277/3/5 274/3/5 273/3/5
f 278/3/5 274/3/5 277/3/5
f 279/3/5 276/3/5 275/3/5
f 280/3/5 276/3/5 279/3/5
f 285/2/5 282/2/5 281/2/5
f 286/2/5 282/2/5 285/2/5
f 287/2/5 284/2/5 283/2/5
f 288/2/5 284/2/5 287/2/5
f 293/1/5 290/1/5 289/1/5
f 294/1/5 290/1/5 293/1/5
f 295/1/5 292/1/5 291/1/5
f 296/1/5 292/1/5 295/1/5
f 297/3/6 298/3/6 299/3/6
f 299/3/6 298/3/6 300/3/6
f 301/2/6 302/2/6 305/2/6
f 305/2/6 302/2/6 306/2/6
f 303/2/6 304/2/6 307/2/6
f 307/2/6 304/2/6 308/2/6
f 309/1/6 310/1/6 313/1/6
f 313/1/6 310/1/6 314/1/6
f 311/1/6 312/1/6 315/1/6
f 315/1/6 312/1/6 316/1/6
f 317/2/6 318/2/6 319/2/6
f 319/2/6 318/2/6 320/2/6
