# MagicaVoxel @ ephtracy

# material
mtllib bird.mtl
usemtl palette

# normals
vn -1 0 0
vn 1 0 0
vn 0 0 1
vn 0 0 -1
vn 0 -1 0
vn 0 1 0

# texcoords
vt 0.626953 0.5
vt 0.630859 0.5
vt 0.634766 0.5
vt 0.638672 0.5
vt 0.642578 0.5
vt 0.646484 0.5
vt 0.876953 0.5
vt 0.978516 0.5
vt 0.982422 0.5

# verts
v -22.5 17 4.5
v -22.5 17 -10.5
v -22.5 25 4.5
v -22.5 25 -10.5
v -18.5 7 15.5
v -18.5 7 14.5
v -18.5 7 -21.5
v -18.5 17 15.5
v -18.5 17 14.5
v -18.5 17 4.5
v -18.5 17 -10.5
v -18.5 25 4.5
v -18.5 25 -10.5
v -18.5 37 15.5
v -18.5 37 -21.5
v -18.5 40 16.5
v -18.5 40 12.5
v -18.5 42 16.5
v -18.5 42 12.5
v -17.5 22 16.5
v -17.5 22 15.5
v -17.5 33 16.5
v -17.5 33 15.5
v -16.5 37 15.5
v -16.5 37 14.5
v -16.5 37 -19.5
v -16.5 38 14.5
v -16.5 38 -19.5
v -16.5 39 16.5
v -16.5 39 15.5
v -16.5 39 12.5
v -16.5 39 -19.5
v -16.5 40 16.5
v -16.5 40 12.5
v -15.5 34 16.5
v -15.5 34 15.5
v -15.5 39 16.5
v -15.5 39 15.5
v -13.5 1 15.5
v -13.5 1 14.5
v -13.5 1 -20.5
v -13.5 1 -21.5
v -13.5 7 15.5
v -13.5 7 14.5
v -13.5 7 -20.5
v -13.5 7 -21.5
v -10.5 0 15.5
v -10.5 0 14.5
v -10.5 0 -21.5
v -10.5 1 15.5
v -10.5 1 14.5
v -10.5 1 -20.5
v -10.5 1 -21.5
v -2.5 16 16.5
v -2.5 16 15.5
v -2.5 19 16.5
v -2.5 19 15.5
v 7.5 22 16.5
v 7.5 22 15.5
v 7.5 33 16.5
v 7.5 33 15.5
v 7.5 34 16.5
v 7.5 34 15.5
v 7.5 39 15.5
v 7.5 39 12.5
v 7.5 41 16.5
v 7.5 41 12.5
v 12.5 41 16.5
v 12.5 41 12.5
v 12.5 42 16.5
v 12.5 42 12.5
v -12.5 41 16.5
v -12.5 41 12.5
v -12.5 42 16.5
v -12.5 42 12.5
v -7.5 22 16.5
v -7.5 22 15.5
v -7.5 33 16.5
v -7.5 33 15.5
v -7.5 34 16.5
v -7.5 34 15.5
v -7.5 39 15.5
v -7.5 39 12.5
v -7.5 41 16.5
v -7.5 41 12.5
v 2.5 16 16.5
v 2.5 16 15.5
v 2.5 19 16.5
v 2.5 19 15.5
v 10.5 0 15.5
v 10.5 0 14.5
v 10.5 0 -21.5
v 10.5 1 15.5
v 10.5 1 14.5
v 10.5 1 -20.5
v 10.5 1 -21.5
v 13.5 1 15.5
v 13.5 1 14.5
v 13.5 1 -20.5
v 13.5 1 -21.5
v 13.5 7 15.5
v 13.5 7 14.5
v 13.5 7 -20.5
v 13.5 7 -21.5
v 15.5 34 16.5
v 15.5 34 15.5
v 15.5 39 16.5
v 15.5 39 15.5
v 16.5 37 15.5
v 16.5 37 14.5
v 16.5 37 -19.5
v 16.5 38 14.5
v 16.5 38 -19.5
v 16.5 39 16.5
v 16.5 39 15.5
v 16.5 39 12.5
v 16.5 39 -19.5
v 16.5 40 16.5
v 16.5 40 12.5
v 17.5 22 16.5
v 17.5 22 15.5
v 17.5 33 16.5
v 17.5 33 15.5
v 18.5 7 15.5
v 18.5 7 14.5
v 18.5 7 -21.5
v 18.5 17 15.5
v 18.5 17 14.5
v 18.5 17 4.5
v 18.5 17 -10.5
v 18.5 25 4.5
v 18.5 25 -10.5
v 18.5 37 15.5
v 18.5 37 -21.5
v 18.5 40 16.5
v 18.5 40 12.5
v 18.5 42 16.5
v 18.5 42 12.5
v 22.5 17 4.5
v 22.5 17 -10.5
v 22.5 25 4.5
v 22.5 25 -10.5
v -18.5 40 16.5
v -18.5 42 16.5
v -17.5 22 16.5
v -17.5 33 16.5
v -16.5 39 16.5
v -16.5 40 16.5
v -15.5 24 16.5
v -15.5 31 16.5
v -15.5 34 16.5
v -15.5 39 16.5
v -12.5 41 16.5
v -12.5 42 16.5
v -9.5 24 16.5
v -9.5 31 16.5
v -7.5 22 16.5
v -7.5 33 16.5
v -7.5 34 16.5
v -7.5 41 16.5
v -2.5 16 16.5
v -2.5 19 16.5
v 2.5 16 16.5
v 2.5 19 16.5
v 7.5 22 16.5
v 7.5 33 16.5
v 7.5 34 16.5
v 7.5 41 16.5
v 9.5 24 16.5
v 9.5 31 16.5
v 12.5 41 16.5
v 12.5 42 16.5
v 15.5 24 16.5
v 15.5 31 16.5
v 15.5 34 16.5
v 15.5 39 16.5
v 16.5 39 16.5
v 16.5 40 16.5
v 17.5 22 16.5
v 17.5 33 16.5
v 18.5 40 16.5
v 18.5 42 16.5
v -18.5 7 15.5
v -18.5 17 15.5
v -18.5 37 15.5
v -17.5 22 15.5
v -17.5 33 15.5
v -16.5 37 15.5
v -16.5 39 15.5
v -15.5 34 15.5
v -15.5 39 15.5
v -13.5 1 15.5
v -13.5 7 15.5
v -12.5 8 15.5
v -12.5 17 15.5
v -11.5 7 15.5
v -11.5 8 15.5
v -10.5 0 15.5
v -10.5 1 15.5
v -7.5 6 15.5
v -7.5 7 15.5
v -7.5 22 15.5
v -7.5 33 15.5
v -7.5 34 15.5
v -7.5 39 15.5
v -2.5 16 15.5
v -2.5 19 15.5
v -2.5 22 15.5
v -2.5 34 15.5
v 2.5 16 15.5
v 2.5 19 15.5
v 2.5 22 15.5
v 2.5 34 15.5
v 7.5 6 15.5
v 7.5 7 15.5
v 7.5 22 15.5
v 7.5 33 15.5
v 7.5 34 15.5
v 7.5 39 15.5
v 10.5 0 15.5
v 10.5 1 15.5
v 11.5 7 15.5
v 11.5 8 15.5
v 12.5 8 15.5
v 12.5 17 15.5
v 13.5 1 15.5
v 13.5 7 15.5
v 15.5 34 15.5
v 15.5 39 15.5
v 16.5 37 15.5
v 16.5 39 15.5
v 17.5 22 15.5
v 17.5 33 15.5
v 18.5 7 15.5
v 18.5 17 15.5
v 18.5 37 15.5
v -22.5 17 4.5
v -22.5 25 4.5
v -18.5 17 4.5
v -18.5 25 4.5
v 18.5 17 4.5
v 18.5 25 4.5
v 22.5 17 4.5
v 22.5 25 4.5
v -18.5 40 12.5
v -18.5 42 12.5
v -16.5 39 12.5
v -16.5 40 12.5
v -12.5 41 12.5
v -12.5 42 12.5
v -7.5 39 12.5
v -7.5 41 12.5
v 7.5 39 12.5
v 7.5 41 12.5
v 12.5 41 12.5
v 12.5 42 12.5
v 16.5 39 12.5
v 16.5 40 12.5
v 18.5 40 12.5
v 18.5 42 12.5
v -22.5 17 -10.5
v -22.5 25 -10.5
v -18.5 17 -10.5
v -18.5 25 -10.5
v 18.5 17 -10.5
v 18.5 25 -10.5
v 22.5 17 -10.5
v 22.5 25 -10.5
v -16.5 37 -19.5
v -16.5 38 -19.5
v -16.5 39 -19.5
v 16.5 37 -19.5
v 16.5 38 -19.5
v 16.5 39 -19.5
v -18.5 7 -21.5
v -18.5 37 -21.5
v -14.5 9 -21.5
v -14.5 34 -21.5
v -13.5 1 -21.5
v -13.5 7 -21.5
v -11.5 13 -21.5
v -11.5 32 -21.5
v -10.5 0 -21.5
v -10.5 1 -21.5
v -8.5 16 -21.5
v -8.5 29 -21.5
v -5.5 18 -21.5
v -5.5 28 -21.5
v -4.5 20 -21.5
v -4.5 26 -21.5
v 4.5 20 -21.5
v 4.5 26 -21.5
v 5.5 18 -21.5
v 5.5 28 -21.5
v 8.5 16 -21.5
v 8.5 29 -21.5
v 10.5 0 -21.5
v 10.5 1 -21.5
v 11.5 13 -21.5
v 11.5 32 -21.5
v 13.5 1 -21.5
v 13.5 7 -21.5
v 14.5 9 -21.5
v 14.5 34 -21.5
v 18.5 7 -21.5
v 18.5 37 -21.5
v -10.5 0 15.5
v 10.5 0 15.5
v -10.5 0 14.5
v 10.5 0 14.5
v -10.5 0 -21.5
v 10.5 0 -21.5
v -13.5 1 15.5
v -10.5 1 15.5
v 10.5 1 15.5
v 13.5 1 15.5
v -13.5 1 14.5
v -12.5 1 14.5
v -11.5 1 14.5
v -10.5 1 14.5
v 10.5 1 14.5
v 11.5 1 14.5
v 12.5 1 14.5
v 13.5 1 14.5
v -12.5 1 13.5
v -11.5 1 13.5
v 11.5 1 13.5
v 12.5 1 13.5
v -13.5 1 -20.5
v -10.5 1 -20.5
v 10.5 1 -20.5
v 13.5 1 -20.5
v -13.5 1 -21.5
v -10.5 1 -21.5
v 10.5 1 -21.5
v 13.5 1 -21.5
v -18.5 7 15.5
v -13.5 7 15.5
v 13.5 7 15.5
v 18.5 7 15.5
v -18.5 7 14.5
v -17.5 7 14.5
v -13.5 7 14.5
v 13.5 7 14.5
v 17.5 7 14.5
v 18.5 7 14.5
v -17.5 7 -20.5
v -13.5 7 -20.5
v 13.5 7 -20.5
v 17.5 7 -20.5
v -18.5 7 -21.5
v -13.5 7 -21.5
v 13.5 7 -21.5
v 18.5 7 -21.5
v -2.5 16 16.5
v 2.5 16 16.5
v -2.5 16 15.5
v 2.5 16 15.5
v -22.5 17 4.5
v -18.5 17 4.5
v 18.5 17 4.5
v 22.5 17 4.5
v -22.5 17 -10.5
v -18.5 17 -10.5
v 18.5 17 -10.5
v 22.5 17 -10.5
v -17.5 22 16.5
v -7.5 22 16.5
v 7.5 22 16.5
v 17.5 22 16.5
v -17.5 22 15.5
v -7.5 22 15.5
v 7.5 22 15.5
v 17.5 22 15.5
v -15.5 34 16.5
v -7.5 34 16.5
v 7.5 34 16.5
v 15.5 34 16.5
v -15.5 34 15.5
v -7.5 34 15.5
v 7.5 34 15.5
v 15.5 34 15.5
v -16.5 39 16.5
v -15.5 39 16.5
v 15.5 39 16.5
v 16.5 39 16.5
v -16.5 39 15.5
v -15.5 39 15.5
v 15.5 39 15.5
v 16.5 39 15.5
v -18.5 40 16.5
v -16.5 40 16.5
v 16.5 40 16.5
v 18.5 40 16.5
v -18.5 40 12.5
v -16.5 40 12.5
v 16.5 40 12.5
v 18.5 40 12.5
v -2.5 19 16.5
v 2.5 19 16.5
v -2.5 19 15.5
v 2.5 19 15.5
v -22.5 25 4.5
v -18.5 25 4.5
v 18.5 25 4.5
v 22.5 25 4.5
v -22.5 25 -10.5
v -18.5 25 -10.5
v 18.5 25 -10.5
v 22.5 25 -10.5
v -17.5 33 16.5
v -7.5 33 16.5
v 7.5 33 16.5
v 17.5 33 16.5
v -17.5 33 15.5
v -7.5 33 15.5
v 7.5 33 15.5
v 17.5 33 15.5
v -18.5 37 15.5
v -16.5 37 15.5
v 16.5 37 15.5
v 18.5 37 15.5
v -17.5 37 14.5
v -16.5 37 14.5
v 16.5 37 14.5
v 17.5 37 14.5
v -16.5 37 -19.5
v 16.5 37 -19.5
v -17.5 37 -20.5
v 17.5 37 -20.5
v -18.5 37 -21.5
v 18.5 37 -21.5
v -7.5 39 15.5
v 7.5 39 15.5
v -16.5 39 12.5
v -7.5 39 12.5
v 7.5 39 12.5
v 16.5 39 12.5
v -16.5 39 -19.5
v 16.5 39 -19.5
v -12.5 41 16.5
v -7.5 41 16.5
v 7.5 41 16.5
v 12.5 41 16.5
v -12.5 41 12.5
v -7.5 41 12.5
v 7.5 41 12.5
v 12.5 41 12.5
v -18.5 42 16.5
v -12.5 42 16.5
v 12.5 42 16.5
v 18.5 42 16.5
v -18.5 42 12.5
v -12.5 42 12.5
v 12.5 42 12.5
v 18.5 42 12.5

# faces
f 3/6/1 2/6/1 1/6/1
f 4/6/1 2/6/1 3/6/1
f 8/3/1 6/3/1 5/3/1
f 9/2/1 7/2/1 6/2/1
f 9/3/1 6/3/1 8/3/1
f 10/2/1 7/2/1 9/2/1
f 11/2/1 7/2/1 10/2/1
f 12/2/1 9/2/1 8/2/1
f 12/2/1 10/2/1 9/2/1
f 13/2/1 7/2/1 11/2/1
f 14/2/1 12/2/1 8/2/1
f 14/2/1 13/2/1 12/2/1
f 15/2/1 7/2/1 13/2/1
f 15/2/1 13/2/1 14/2/1
f 18/3/1 17/3/1 16/3/1
f 19/3/1 17/3/1 18/3/1
f 22/7/1 21/7/1 20/7/1
f 23/7/1 21/7/1 22/7/1
f 27/2/1 25/2/1 24/2/1
f 27/9/1 26/9/1 25/9/1
f 28/9/1 26/9/1 27/9/1
f 30/2/1 27/2/1 24/2/1
f 30/2/1 28/2/1 27/2/1
f 31/2/1 28/2/1 30/2/1
f 32/2/1 28/2/1 31/2/1
f 33/3/1 30/3/1 29/3/1
f 33/3/1 31/3/1 30/3/1
f 34/3/1 31/3/1 33/3/1
f 37/3/1 36/3/1 35/3/1
f 38/3/1 36/3/1 37/3/1
f 43/3/1 40/3/1 39/3/1
f 44/9/1 41/9/1 40/9/1
f 44/3/1 40/3/1 43/3/1
f 45/2/1 42/2/1 41/2/1
f 45/9/1 41/9/1 44/9/1
f 46/2/1 42/2/1 45/2/1
f 50/3/1 48/3/1 47/3/1
f 51/2/1 49/2/1 48/2/1
f 51/3/1 48/3/1 50/3/1
f 52/2/1 49/2/1 51/2/1
f 53/2/1 49/2/1 52/2/1
f 56/7/1 55/7/1 54/7/1
f 57/7/1 55/7/1 56/7/1
f 60/7/1 59/7/1 58/7/1
f 61/7/1 59/7/1 60/7/1
f 64/3/1 63/3/1 62/3/1
f 66/3/1 64/3/1 62/3/1
f 66/3/1 65/3/1 64/3/1
f 67/3/1 65/3/1 66/3/1
f 70/3/1 69/3/1 68/3/1
f 71/3/1 69/3/1 70/3/1
f 72/3/2 73/3/2 74/3/2
f 74/3/2 73/3/2 75/3/2
f 76/7/2 77/7/2 78/7/2
f 78/7/2 77/7/2 79/7/2
f 80/3/2 81/3/2 82/3/2
f 80/3/2 82/3/2 84/3/2
f 82/3/2 83/3/2 84/3/2
f 84/3/2 83/3/2 85/3/2
f 86/7/2 87/7/2 88/7/2
f 88/7/2 87/7/2 89/7/2
f 90/3/2 91/3/2 93/3/2
f 91/2/2 92/2/2 94/2/2
f 93/3/2 91/3/2 94/3/2
f 94/2/2 92/2/2 95/2/2
f 95/2/2 92/2/2 96/2/2
f 97/3/2 98/3/2 101/3/2
f 98/9/2 99/9/2 102/9/2
f 101/3/2 98/3/2 102/3/2
f 99/2/2 100/2/2 103/2/2
f 102/9/2 99/9/2 103/9/2
f 103/2/2 100/2/2 104/2/2
f 105/3/2 106/3/2 107/3/2
f 107/3/2 106/3/2 108/3/2
f 109/2/2 110/2/2 112/2/2
f 110/9/2 111/9/2 112/9/2
f 112/9/2 111/9/2 113/9/2
f 109/2/2 112/2/2 115/2/2
f 112/2/2 113/2/2 115/2/2
f 115/2/2 113/2/2 116/2/2
f 116/2/2 113/2/2 117/2/2
f 114/3/2 115/3/2 118/3/2
f 115/3/2 116/3/2 118/3/2
f 118/3/2 116/3/2 119/3/2
f 120/7/2 121/7/2 122/7/2
f 122/7/2 121/7/2 123/7/2
f 124/3/2 125/3/2 127/3/2
f 125/2/2 126/2/2 128/2/2
f 127/3/2 125/3/2 128/3/2
f 128/2/2 126/2/2 129/2/2
f 129/2/2 126/2/2 130/2/2
f 127/2/2 128/2/2 131/2/2
f 128/2/2 129/2/2 131/2/2
f 130/2/2 126/2/2 132/2/2
f 127/2/2 131/2/2 133/2/2
f 131/2/2 132/2/2 133/2/2
f 132/2/2 126/2/2 134/2/2
f 133/2/2 132/2/2 134/2/2
f 135/3/2 136/3/2 137/3/2
f 137/3/2 136/3/2 138/3/2
f 139/6/2 140/6/2 141/6/2
f 141/6/2 140/6/2 142/6/2
f 148/3/3 144/3/3 143/3/3
f 149/7/3 146/7/3 145/7/3
f 150/7/3 146/7/3 149/7/3
f 152/3/3 148/3/3 147/3/3
f 153/3/3 144/3/3 148/3/3
f 153/3/3 152/3/3 151/3/3
f 153/3/3 148/3/3 152/3/3
f 154/3/3 144/3/3 153/3/3
f 155/7/3 149/7/3 145/7/3
f 155/8/3 150/8/3 149/8/3
f 156/7/3 146/7/3 150/7/3
f 156/8/3 150/8/3 155/8/3
f 157/7/3 155/7/3 145/7/3
f 157/7/3 156/7/3 155/7/3
f 158/7/3 146/7/3 156/7/3
f 158/7/3 156/7/3 157/7/3
f 159/3/3 153/3/3 151/3/3
f 160/3/3 153/3/3 159/3/3
f 163/7/3 162/7/3 161/7/3
f 164/7/3 162/7/3 163/7/3
f 169/7/3 166/7/3 165/7/3
f 170/7/3 166/7/3 169/7/3
f 171/3/3 168/3/3 167/3/3
f 173/7/3 169/7/3 165/7/3
f 173/8/3 170/8/3 169/8/3
f 174/7/3 166/7/3 170/7/3
f 174/8/3 170/8/3 173/8/3
f 175/3/3 171/3/3 167/3/3
f 175/3/3 172/3/3 171/3/3
f 176/3/3 172/3/3 175/3/3
f 177/3/3 172/3/3 176/3/3
f 178/3/3 172/3/3 177/3/3
f 179/7/3 173/7/3 165/7/3
f 179/7/3 174/7/3 173/7/3
f 180/7/3 166/7/3 174/7/3
f 180/7/3 174/7/3 179/7/3
f 181/3/3 172/3/3 178/3/3
f 182/3/3 172/3/3 181/3/3
f 186/2/3 185/2/3 184/2/3
f 187/2/3 185/2/3 186/2/3
f 188/2/3 185/2/3 187/2/3
f 190/2/3 188/2/3 187/2/3
f 190/2/3 189/2/3 188/2/3
f 191/2/3 189/2/3 190/2/3
f 193/3/3 184/3/3 183/3/3
f 194/3/3 184/3/3 193/3/3
f 194/3/3 193/3/3 192/3/3
f 195/2/3 186/2/3 184/2/3
f 195/3/3 184/3/3 194/3/3
f 196/3/3 194/3/3 192/3/3
f 197/2/3 195/2/3 194/2/3
f 197/3/3 194/3/3 196/3/3
f 199/3/3 196/3/3 192/3/3
f 200/3/3 196/3/3 199/3/3
f 200/3/3 199/3/3 198/3/3
f 201/2/3 197/2/3 196/2/3
f 201/3/3 196/3/3 200/3/3
f 202/2/3 186/2/3 195/2/3
f 202/2/3 197/2/3 201/2/3
f 202/2/3 195/2/3 197/2/3
f 203/2/3 190/2/3 187/2/3
f 204/2/3 190/2/3 203/2/3
f 206/2/3 201/2/3 200/2/3
f 206/2/3 205/2/3 204/2/3
f 206/2/3 204/2/3 203/2/3
f 206/2/3 203/2/3 202/2/3
f 206/2/3 202/2/3 201/2/3
f 207/2/3 205/2/3 206/2/3
f 208/2/3 205/2/3 207/2/3
f 209/2/3 205/2/3 208/2/3
f 210/2/3 206/2/3 200/2/3
f 211/2/3 208/2/3 207/2/3
f 212/7/3 209/7/3 208/7/3
f 212/2/3 208/2/3 211/2/3
f 213/2/3 205/2/3 209/2/3
f 213/7/3 209/7/3 212/7/3
f 214/3/3 200/3/3 198/3/3
f 214/2/3 212/2/3 211/2/3
f 214/2/3 213/2/3 212/2/3
f 214/2/3 211/2/3 210/2/3
f 214/2/3 210/2/3 200/2/3
f 215/2/3 213/2/3 214/2/3
f 216/2/3 213/2/3 215/2/3
f 217/2/3 213/2/3 216/2/3
f 218/2/3 205/2/3 213/2/3
f 218/2/3 213/2/3 217/2/3
f 219/2/3 205/2/3 218/2/3
f 220/3/3 214/3/3 198/3/3
f 220/3/3 215/3/3 214/3/3
f 221/3/3 215/3/3 220/3/3
f 222/2/3 216/2/3 215/2/3
f 222/3/3 215/3/3 221/3/3
f 223/2/3 216/2/3 222/2/3
f 224/3/3 223/3/3 222/3/3
f 224/2/3 216/2/3 223/2/3
f 225/2/3 216/2/3 224/2/3
f 226/3/3 222/3/3 221/3/3
f 226/3/3 224/3/3 222/3/3
f 226/3/3 225/3/3 224/3/3
f 227/3/3 225/3/3 226/3/3
f 228/2/3 218/2/3 217/2/3
f 230/2/3 229/2/3 228/2/3
f 231/2/3 229/2/3 230/2/3
f 232/2/3 216/2/3 225/2/3
f 233/2/3 228/2/3 217/2/3
f 233/2/3 230/2/3 228/2/3
f 234/3/3 225/3/3 227/3/3
f 235/2/3 233/2/3 232/2/3
f 235/3/3 225/3/3 234/3/3
f 235/2/3 232/2/3 225/2/3
f 236/2/3 230/2/3 233/2/3
f 236/2/3 233/2/3 235/2/3
f 239/6/3 238/6/3 237/6/3
f 240/6/3 238/6/3 239/6/3
f 243/6/3 242/6/3 241/6/3
f 244/6/3 242/6/3 243/6/3
f 245/3/4 246/3/4 248/3/4
f 248/3/4 246/3/4 249/3/4
f 247/3/4 248/3/4 249/3/4
f 249/3/4 246/3/4 250/3/4
f 247/3/4 249/3/4 251/3/4
f 251/3/4 249/3/4 252/3/4
f 253/3/4 254/3/4 255/3/4
f 253/3/4 255/3/4 257/3/4
f 255/3/4 256/3/4 257/3/4
f 257/3/4 256/3/4 258/3/4
f 258/3/4 256/3/4 259/3/4
f 259/3/4 256/3/4 260/3/4
f 261/6/4 262/6/4 263/6/4
f 263/6/4 262/6/4 264/6/4
f 265/6/4 266/6/4 267/6/4
f 267/6/4 266/6/4 268/6/4
f 269/9/4 270/9/4 272/9/4
f 270/2/4 271/2/4 273/2/4
f 272/9/4 270/9/4 273/9/4
f 273/2/4 271/2/4 274/2/4
f 275/2/4 276/2/4 277/2/4
f 277/2/4 276/2/4 278/2/4
f 275/2/4 277/2/4 280/2/4
f 277/1/4 278/1/4 281/1/4
f 281/1/4 278/1/4 282/1/4
f 279/2/4 280/2/4 284/2/4
f 281/4/4 282/4/4 285/4/4
f 285/4/4 282/4/4 286/4/4
f 285/5/4 286/5/4 287/5/4
f 287/5/4 286/5/4 288/5/4
f 287/6/4 288/6/4 289/6/4
f 289/6/4 288/6/4 290/6/4
f 287/6/4 289/6/4 291/6/4
f 289/7/4 290/7/4 291/7/4
f 290/6/4 288/6/4 292/6/4
f 291/7/4 290/7/4 292/7/4
f 285/5/4 287/5/4 293/5/4
f 287/6/4 291/6/4 293/6/4
f 291/6/4 292/6/4 293/6/4
f 292/6/4 288/6/4 294/6/4
f 293/6/4 292/6/4 294/6/4
f 288/5/4 286/5/4 294/5/4
f 281/4/4 285/4/4 295/4/4
f 285/5/4 293/5/4 295/5/4
f 293/5/4 294/5/4 295/5/4
f 294/5/4 286/5/4 296/5/4
f 295/5/4 294/5/4 296/5/4
f 286/4/4 282/4/4 296/4/4
f 283/2/4 284/2/4 297/2/4
f 284/2/4 280/2/4 298/2/4
f 297/2/4 284/2/4 298/2/4
f 277/1/4 281/1/4 299/1/4
f 281/4/4 295/4/4 299/4/4
f 295/4/4 296/4/4 299/4/4
f 282/1/4 278/1/4 300/1/4
f 299/4/4 296/4/4 300/4/4
f 296/4/4 282/4/4 300/4/4
f 298/2/4 280/2/4 301/2/4
f 280/2/4 277/2/4 302/2/4
f 301/2/4 280/2/4 302/2/4
f 277/1/4 299/1/4 303/1/4
f 302/2/4 277/2/4 303/2/4
f 299/1/4 300/1/4 303/1/4
f 278/2/4 276/2/4 304/2/4
f 303/1/4 300/1/4 304/1/4
f 300/1/4 278/1/4 304/1/4
f 302/2/4 303/2/4 305/2/4
f 303/2/4 304/2/4 305/2/4
f 304/2/4 276/2/4 306/2/4
f 305/2/4 304/2/4 306/2/4
f 309/3/5 308/3/5 307/3/5
f 310/3/5 308/3/5 309/3/5
f 311/2/5 310/2/5 309/2/5
f 312/2/5 310/2/5 311/2/5
f 317/3/5 314/3/5 313/3/5
f 318/3/5 314/3/5 317/3/5
f 319/3/5 314/3/5 318/3/5
f 320/3/5 314/3/5 319/3/5
f 321/3/5 316/3/5 315/3/5
f 322/3/5 316/3/5 321/3/5
f 323/3/5 316/3/5 322/3/5
f 324/3/5 316/3/5 323/3/5
f 325/9/5 318/9/5 317/9/5
f 325/3/5 319/3/5 318/3/5
f 326/9/5 320/9/5 319/9/5
f 326/3/5 319/3/5 325/3/5
f 327/9/5 322/9/5 321/9/5
f 327/3/5 323/3/5 322/3/5
f 328/9/5 324/9/5 323/9/5
f 328/3/5 323/3/5 327/3/5
f 329/9/5 325/9/5 317/9/5
f 329/9/5 326/9/5 325/9/5
f 330/9/5 320/9/5 326/9/5
f 330/9/5 326/9/5 329/9/5
f 331/9/5 327/9/5 321/9/5
f 331/9/5 328/9/5 327/9/5
f 332/9/5 324/9/5 328/9/5
f 332/9/5 328/9/5 331/9/5
f 333/2/5 330/2/5 329/2/5
f 334/2/5 330/2/5 333/2/5
f 335/2/5 332/2/5 331/2/5
f 336/2/5 332/2/5 335/2/5
f 341/3/5 338/3/5 337/3/5
f 342/3/5 338/3/5 341/3/5
f 343/3/5 338/3/5 342/3/5
f 344/3/5 340/3/5 339/3/5
f 345/3/5 340/3/5 344/3/5
f 346/3/5 340/3/5 345/3/5
f 347/9/5 343/9/5 342/9/5
f 347/2/5 342/2/5 341/2/5
f 348/9/5 343/9/5 347/9/5
f 349/9/5 345/9/5 344/9/5
f 350/2/5 346/2/5 345/2/5
f 350/9/5 345/9/5 349/9/5
f 351/2/5 348/2/5 347/2/5
f 351/2/5 347/2/5 341/2/5
f 352/2/5 348/2/5 351/2/5
f 353/2/5 350/2/5 349/2/5
f 354/2/5 346/2/5 350/2/5
f 354/2/5 350/2/5 353/2/5
f 357/7/5 356/7/5 355/7/5
f 358/7/5 356/7/5 357/7/5
f 363/6/5 360/6/5 359/6/5
f 364/6/5 360/6/5 363/6/5
f 365/6/5 362/6/5 361/6/5
f 366/6/5 362/6/5 365/6/5
f 371/7/5 368/7/5 367/7/5
f 372/7/5 368/7/5 371/7/5
f 373/7/5 370/7/5 369/7/5
f 374/7/5 370/7/5 373/7/5
f 379/3/5 376/3/5 375/3/5
f 380/3/5 376/3/5 379/3/5
f 381/3/5 378/3/5 377/3/5
f 382/3/5 378/3/5 381/3/5
f 387/3/5 384/3/5 383/3/5
f 388/3/5 384/3/5 387/3/5
f 389/3/5 386/3/5 385/3/5
f 390/3/5 386/3/5 389/3/5
f 395/3/5 392/3/5 391/3/5
f 396/3/5 392/3/5 395/3/5
f 397/3/5 394/3/5 393/3/5
f 398/3/5 394/3/5 397/3/5
f 399/7/6 400/7/6 401/7/6
f 401/7/6 400/7/6 402/7/6
f 403/6/6 404/6/6 407/6/6
f 407/6/6 404/6/6 408/6/6
f 405/6/6 406/6/6 409/6/6
f 409/6/6 406/6/6 410/6/6
f 411/7/6 412/7/6 415/7/6
f 415/7/6 412/7/6 416/7/6
f 413/7/6 414/7/6 417/7/6
f 417/7/6 414/7/6 418/7/6
f 419/2/6 420/2/6 423/2/6
f 423/2/6 420/2/6 424/2/6
f 421/2/6 422/2/6 425/2/6
f 425/2/6 422/2/6 426/2/6
f 423/9/6 424/9/6 427/9/6
f 425/9/6 426/9/6 428/9/6
f 419/2/6 423/2/6 429/2/6
f 427/9/6 428/9/6 429/9/6
f 423/9/6 427/9/6 429/9/6
f 426/2/6 422/2/6 430/2/6
f 429/9/6 428/9/6 430/9/6
f 428/9/6 426/9/6 430/9/6
f 419/2/6 429/2/6 431/2/6
f 429/2/6 430/2/6 431/2/6
f 430/2/6 422/2/6 432/2/6
f 431/2/6 430/2/6 432/2/6
f 433/2/6 434/2/6 436/2/6
f 436/2/6 434/2/6 437/2/6
f 435/2/6 436/2/6 439/2/6
f 437/2/6 438/2/6 439/2/6
f 436/2/6 437/2/6 439/2/6
f 439/2/6 438/2/6 440/2/6
f 441/3/6 442/3/6 445/3/6
f 445/3/6 442/3/6 446/3/6
f 443/3/6 444/3/6 447/3/6
f 447/3/6 444/3/6 448/3/6
f 449/3/6 450/3/6 453/3/6
f 453/3/6 450/3/6 454/3/6
f 451/3/6 452/3/6 455/3/6
f 455/3/6 452/3/6 456/3/6
